M48
;DRILL file {KiCad 4.0.7-e2-6376~61~ubuntu18.04.1} date Tue Jul 28 22:43:06 2020
;FORMAT={-:-/ absolute / inch / decimal}
FMAT,2
INCH,TZ
T1C0.010
T2C0.018
T3C0.031
T4C0.039
T5C0.040
T6C0.051
T7C0.063
T8C0.126
%
G90
G05
M72
T1
X0.5Y-0.71
X0.58Y-0.76
X0.64Y-0.76
X0.72Y-0.71
X0.88Y-0.2
X0.88Y-0.97
X1.0143Y-1.07
X1.0412Y-0.1457
X1.1Y-0.21
X1.1Y-0.97
X1.66Y-1.16
X1.68Y-0.38
X1.68Y-0.76
X1.69Y-1.18
X1.72Y-0.74
X1.72Y-1.16
X1.76Y-1.18
X1.77Y-0.71
X1.78Y-0.38
X1.8Y-0.21
X1.81Y-0.71
X1.82Y-1.16
X1.83Y-0.19
X1.83Y-0.74
X1.85Y-1.18
X1.86Y-0.76
X1.87Y-0.16
X1.88Y-1.16
X1.9Y-0.19
X1.9Y-0.74
X1.95Y-0.33
X1.95Y-0.63
X2.01Y-0.4
T2
X0.39Y-0.79
X0.45Y-0.7
X0.5Y-1.
X0.61Y-0.89
X0.8Y-0.99
X0.81Y-0.17
X0.9Y-1.09
X0.99Y-0.38
X1.07Y-1.13
X1.47Y-0.5
X1.57Y-1.24
X1.59Y-1.29
X1.61Y-1.24
X1.65Y-1.35
X1.65Y-1.4
X1.65Y-1.45
X1.69Y-0.44
X1.69Y-0.49
X1.7Y-1.35
X1.7Y-1.4
X1.7Y-1.45
X1.75Y-1.35
X1.75Y-1.4
X1.75Y-1.45
X1.8Y-1.35
X1.8Y-1.4
X1.8Y-1.45
X1.85Y-1.35
X1.85Y-1.4
X1.85Y-1.45
X1.89Y-0.44
X1.89Y-0.49
X1.9Y-1.35
X1.9Y-1.4
X1.9Y-1.45
X1.95Y-1.24
X1.99Y-1.24
X2.04Y-0.18
X2.26Y-1.02
X2.26Y-1.07
X2.26Y-1.12
X2.26Y-1.17
X2.26Y-1.22
X2.31Y-1.02
X2.31Y-1.07
X2.31Y-1.12
X2.31Y-1.17
X2.31Y-1.22
X2.36Y-1.02
X2.36Y-1.07
X2.36Y-1.12
X2.36Y-1.17
X2.36Y-1.22
X2.41Y-1.02
X2.41Y-1.07
X2.41Y-1.12
X2.41Y-1.17
X2.41Y-1.22
X2.46Y-1.02
X2.46Y-1.07
X2.46Y-1.12
X2.46Y-1.17
X2.46Y-1.22
X2.53Y-1.03
X2.7Y-0.58
X2.7Y-1.59
T3
X0.1Y-0.33
X0.1Y-0.74
X0.1Y-1.15
X0.1Y-1.56
X0.2Y-0.23
X0.2Y-0.43
X0.2Y-0.64
X0.2Y-0.84
X0.2Y-1.05
X0.2Y-1.25
X0.2Y-1.46
X0.2Y-1.66
T4
X1.79Y-0.07
X1.89Y-0.07
X1.99Y-0.07
X2.09Y-0.07
T5
X2.4Y-0.47
X2.4Y-0.57
X2.4Y-0.67
X2.5Y-0.47
X2.5Y-0.57
X2.5Y-0.67
T6
X0.7131Y-1.6445
X0.91Y-1.8413
X1.1069Y-1.6445
X1.5631Y-1.8
X1.76Y-1.8
X1.9631Y-1.8
X2.16Y-1.8
X2.3631Y-1.8
X2.56Y-1.8
T7
X0.7131Y-1.8413
X0.91Y-1.6445
X1.1069Y-1.8413
T8
X0.5709Y-0.128
X1.3091Y-1.8012
X2.6083Y-0.128
T0
M30
