G04 #@! TF.FileFunction,Soldermask,Top*
%FSLAX46Y46*%
G04 Gerber Fmt 4.6, Leading zero omitted, Abs format (unit mm)*
G04 Created by KiCad (PCBNEW 4.0.7-e2-6376~61~ubuntu18.04.1) date Tue Jul 28 22:42:29 2020*
%MOMM*%
%LPD*%
G01*
G04 APERTURE LIST*
%ADD10C,0.100000*%
%ADD11C,2.500000*%
%ADD12C,2.000000*%
%ADD13C,1.840000*%
%ADD14R,2.900000X2.900000*%
%ADD15C,2.900000*%
%ADD16R,2.127200X2.127200*%
%ADD17O,2.127200X2.127200*%
%ADD18C,3.600000*%
%ADD19R,1.500000X2.150000*%
%ADD20R,0.850000X2.150000*%
%ADD21R,2.600000X1.600000*%
%ADD22R,1.720800X1.720800*%
%ADD23R,1.847800X1.720800*%
%ADD24R,1.300000X1.600000*%
%ADD25R,1.900000X1.700000*%
%ADD26R,2.000000X0.950000*%
%ADD27R,0.950000X2.000000*%
%ADD28R,1.300000X1.200000*%
%ADD29R,1.400000X1.650000*%
%ADD30R,1.650000X1.400000*%
%ADD31R,1.600000X1.600000*%
%ADD32R,1.700000X1.900000*%
%ADD33R,0.850000X1.850000*%
%ADD34R,4.900000X2.400000*%
%ADD35R,2.000000X3.000000*%
%ADD36R,1.000000X1.950000*%
%ADD37R,2.100000X2.100000*%
%ADD38O,2.100000X2.100000*%
G04 APERTURE END LIST*
D10*
D11*
X28114000Y-41770000D03*
X18114000Y-41770000D03*
X23114000Y-46770000D03*
D12*
X18114000Y-46770000D03*
X28114000Y-46770000D03*
X23114000Y-41770000D03*
D13*
X5080000Y-37084000D03*
X2540000Y-39624000D03*
X5080000Y-42164000D03*
X5080000Y-26670000D03*
X2540000Y-29210000D03*
X5080000Y-31750000D03*
X5080000Y-16256000D03*
X2540000Y-18796000D03*
X5080000Y-21336000D03*
X5080000Y-5842000D03*
X2540000Y-8382000D03*
X5080000Y-10922000D03*
D14*
X39704000Y-45720000D03*
D15*
X44704000Y-45720000D03*
D14*
X49864000Y-45720000D03*
D15*
X54864000Y-45720000D03*
D14*
X60024000Y-45720000D03*
D15*
X65024000Y-45720000D03*
D12*
X19558000Y-19558000D03*
X18796000Y-28448000D03*
X18796000Y-8890000D03*
X61000000Y-2000000D03*
X2000000Y-48000000D03*
X2000000Y-2000000D03*
X40894000Y-7620000D03*
X55880000Y-38862000D03*
D16*
X63500000Y-17018000D03*
D17*
X60960000Y-17018000D03*
X63500000Y-14478000D03*
X60960000Y-14478000D03*
X63500000Y-11938000D03*
X60960000Y-11938000D03*
D18*
X66250000Y-3250000D03*
D19*
X41962000Y-38652000D03*
X41962000Y-38652000D03*
X43262000Y-38652000D03*
X43262000Y-38652000D03*
X44562000Y-38652000D03*
X44562000Y-38652000D03*
X45862000Y-38652000D03*
X45862000Y-38652000D03*
X47162000Y-38652000D03*
X47162000Y-38652000D03*
X48462000Y-38652000D03*
X48462000Y-38652000D03*
D20*
X48787000Y-31452000D03*
X48137000Y-31452000D03*
X47487000Y-31452000D03*
X46837000Y-31452000D03*
X46187000Y-31452000D03*
X45537000Y-31452000D03*
X44887000Y-31452000D03*
X44237000Y-31452000D03*
X43587000Y-31452000D03*
X42937000Y-31452000D03*
X42287000Y-31452000D03*
X41637000Y-31452000D03*
D21*
X66176000Y-30728000D03*
X66176000Y-26168000D03*
D22*
X58674000Y-30988000D03*
X62484000Y-30988000D03*
X61214000Y-30988000D03*
X59944000Y-30988000D03*
D23*
X57404000Y-30988000D03*
D22*
X62484000Y-29718000D03*
X62484000Y-28448000D03*
X62484000Y-27178000D03*
X62484000Y-25908000D03*
X61214000Y-29718000D03*
X59944000Y-29718000D03*
X58674000Y-29718000D03*
D23*
X57404000Y-29718000D03*
D22*
X61214000Y-28448000D03*
X59944000Y-28448000D03*
X58674000Y-28448000D03*
D23*
X57404000Y-28448000D03*
D22*
X61214000Y-27178000D03*
X59944000Y-27178000D03*
X58674000Y-27178000D03*
D23*
X57404000Y-27178000D03*
D22*
X61214000Y-25908000D03*
X59944000Y-25908000D03*
X58674000Y-25908000D03*
D23*
X57404000Y-25908000D03*
D24*
X16892000Y-11430000D03*
X20192000Y-11430000D03*
D25*
X17192000Y-13716000D03*
X19892000Y-13716000D03*
D26*
X41216000Y-9392000D03*
X41216000Y-10192000D03*
X41216000Y-10992000D03*
X41216000Y-11792000D03*
X41216000Y-12592000D03*
X41216000Y-13392000D03*
X41216000Y-14192000D03*
X41216000Y-14992000D03*
D27*
X42666000Y-16442000D03*
X43466000Y-16442000D03*
X44266000Y-16442000D03*
X45066000Y-16442000D03*
X45866000Y-16442000D03*
X46666000Y-16442000D03*
X47466000Y-16442000D03*
X48266000Y-16442000D03*
D26*
X49716000Y-14992000D03*
X49716000Y-14192000D03*
X49716000Y-13392000D03*
X49716000Y-12592000D03*
X49716000Y-11792000D03*
X49716000Y-10992000D03*
X49716000Y-10192000D03*
X49716000Y-9392000D03*
D27*
X48266000Y-7942000D03*
X47466000Y-7942000D03*
X46666000Y-7942000D03*
X45866000Y-7942000D03*
X45066000Y-7942000D03*
X44266000Y-7942000D03*
X43466000Y-7942000D03*
X42666000Y-7942000D03*
D28*
X53102000Y-6416000D03*
X53102000Y-8316000D03*
X55102000Y-7366000D03*
D29*
X53102000Y-16256000D03*
X55102000Y-16256000D03*
X53102000Y-14224000D03*
X55102000Y-14224000D03*
D30*
X38796000Y-12684000D03*
X38796000Y-10684000D03*
D29*
X42148000Y-26416000D03*
X40148000Y-26416000D03*
X49800000Y-26416000D03*
X51800000Y-26416000D03*
D30*
X68580000Y-35068000D03*
X68580000Y-37068000D03*
X68580000Y-27448000D03*
X68580000Y-29448000D03*
D29*
X53118000Y-4572000D03*
X55118000Y-4572000D03*
X53102000Y-12192000D03*
X55102000Y-12192000D03*
D30*
X21082000Y-28686000D03*
X21082000Y-26686000D03*
X21082000Y-9128000D03*
X21082000Y-7128000D03*
D31*
X40640000Y-2456000D03*
X40640000Y-4656000D03*
X68580000Y-46652000D03*
X68580000Y-48852000D03*
D24*
X30100000Y-30734000D03*
X33400000Y-30734000D03*
X16892000Y-30988000D03*
X20192000Y-30988000D03*
X33400000Y-28194000D03*
X30100000Y-28194000D03*
X30100000Y-11176000D03*
X33400000Y-11176000D03*
X33400000Y-8636000D03*
X30100000Y-8636000D03*
D25*
X52752000Y-18288000D03*
X55452000Y-18288000D03*
D32*
X68580000Y-15828000D03*
X68580000Y-13128000D03*
X42672000Y-2206000D03*
X42672000Y-4906000D03*
D25*
X44624000Y-26416000D03*
X47324000Y-26416000D03*
D32*
X68580000Y-41830000D03*
X68580000Y-44530000D03*
D25*
X30400000Y-35306000D03*
X33100000Y-35306000D03*
D32*
X22098000Y-33448000D03*
X22098000Y-36148000D03*
X28194000Y-33448000D03*
X28194000Y-36148000D03*
X24130000Y-33448000D03*
X24130000Y-36148000D03*
X26162000Y-33448000D03*
X26162000Y-36148000D03*
D25*
X33100000Y-33274000D03*
X30400000Y-33274000D03*
X17192000Y-33274000D03*
X19892000Y-33274000D03*
D32*
X14986000Y-30400000D03*
X14986000Y-33100000D03*
D25*
X33100000Y-25908000D03*
X30400000Y-25908000D03*
X30400000Y-15748000D03*
X33100000Y-15748000D03*
D32*
X22098000Y-13890000D03*
X22098000Y-16590000D03*
X28194000Y-13890000D03*
X28194000Y-16590000D03*
X24130000Y-13890000D03*
X24130000Y-16590000D03*
X26162000Y-13890000D03*
X26162000Y-16590000D03*
D25*
X33100000Y-13716000D03*
X30400000Y-13716000D03*
D32*
X14986000Y-10842000D03*
X14986000Y-13542000D03*
D25*
X33100000Y-6350000D03*
X30400000Y-6350000D03*
D33*
X13544000Y-24032000D03*
X14194000Y-24032000D03*
X14844000Y-24032000D03*
X15494000Y-24032000D03*
X16144000Y-24032000D03*
X16794000Y-24032000D03*
X17444000Y-24032000D03*
X17444000Y-18132000D03*
X16794000Y-18132000D03*
X16144000Y-18132000D03*
X15494000Y-18132000D03*
X14844000Y-18132000D03*
X14194000Y-18132000D03*
X13544000Y-18132000D03*
X23196000Y-30636000D03*
X23846000Y-30636000D03*
X24496000Y-30636000D03*
X25146000Y-30636000D03*
X25796000Y-30636000D03*
X26446000Y-30636000D03*
X27096000Y-30636000D03*
X27096000Y-24736000D03*
X26446000Y-24736000D03*
X25796000Y-24736000D03*
X25146000Y-24736000D03*
X24496000Y-24736000D03*
X23846000Y-24736000D03*
X23196000Y-24736000D03*
X23196000Y-11078000D03*
X23846000Y-11078000D03*
X24496000Y-11078000D03*
X25146000Y-11078000D03*
X25796000Y-11078000D03*
X26446000Y-11078000D03*
X27096000Y-11078000D03*
X27096000Y-5178000D03*
X26446000Y-5178000D03*
X25796000Y-5178000D03*
X25146000Y-5178000D03*
X24496000Y-5178000D03*
X23846000Y-5178000D03*
X23196000Y-5178000D03*
D34*
X41724000Y-22606000D03*
X50224000Y-22606000D03*
D30*
X11430000Y-22082000D03*
X11430000Y-20082000D03*
X39370000Y-34052000D03*
X39370000Y-36052000D03*
X55880000Y-34052000D03*
X55880000Y-36052000D03*
D35*
X52324000Y-33252000D03*
X52324000Y-36852000D03*
D36*
X61849000Y-33368000D03*
X60579000Y-33368000D03*
X59309000Y-33368000D03*
X58039000Y-33368000D03*
X58039000Y-38768000D03*
X59309000Y-38768000D03*
X60579000Y-38768000D03*
X61849000Y-38768000D03*
D35*
X65024000Y-34268000D03*
X65024000Y-37868000D03*
D18*
X33250000Y-45750000D03*
X14500000Y-3250000D03*
D12*
X39370000Y-38608000D03*
D25*
X52752000Y-10160000D03*
X55452000Y-10160000D03*
D30*
X68580000Y-8906000D03*
X68580000Y-10906000D03*
D37*
X45466000Y-1778000D03*
D38*
X48006000Y-1778000D03*
X50546000Y-1778000D03*
X53086000Y-1778000D03*
M02*
