G04 #@! TF.FileFunction,Soldermask,Bot*
%FSLAX46Y46*%
G04 Gerber Fmt 4.6, Leading zero omitted, Abs format (unit mm)*
G04 Created by KiCad (PCBNEW 4.0.7-e2-6376~61~ubuntu18.04.1) date Tue Jul 28 22:42:29 2020*
%MOMM*%
%LPD*%
G01*
G04 APERTURE LIST*
%ADD10C,0.100000*%
%ADD11C,2.500000*%
%ADD12C,2.000000*%
%ADD13C,1.840000*%
%ADD14R,2.900000X2.900000*%
%ADD15C,2.900000*%
%ADD16R,2.127200X2.127200*%
%ADD17O,2.127200X2.127200*%
%ADD18C,3.600000*%
%ADD19R,1.720800X1.720800*%
%ADD20R,1.847800X1.720800*%
%ADD21R,2.100000X2.100000*%
%ADD22O,2.100000X2.100000*%
G04 APERTURE END LIST*
D10*
D11*
X28114000Y-41770000D03*
X18114000Y-41770000D03*
X23114000Y-46770000D03*
D12*
X18114000Y-46770000D03*
X28114000Y-46770000D03*
X23114000Y-41770000D03*
D13*
X5080000Y-37084000D03*
X2540000Y-39624000D03*
X5080000Y-42164000D03*
X5080000Y-26670000D03*
X2540000Y-29210000D03*
X5080000Y-31750000D03*
X5080000Y-16256000D03*
X2540000Y-18796000D03*
X5080000Y-21336000D03*
X5080000Y-5842000D03*
X2540000Y-8382000D03*
X5080000Y-10922000D03*
D14*
X39704000Y-45720000D03*
D15*
X44704000Y-45720000D03*
D14*
X49864000Y-45720000D03*
D15*
X54864000Y-45720000D03*
D14*
X60024000Y-45720000D03*
D15*
X65024000Y-45720000D03*
D16*
X63500000Y-17018000D03*
D17*
X60960000Y-17018000D03*
X63500000Y-14478000D03*
X60960000Y-14478000D03*
X63500000Y-11938000D03*
X60960000Y-11938000D03*
D18*
X66250000Y-3250000D03*
D19*
X58674000Y-30988000D03*
X62484000Y-30988000D03*
X61214000Y-30988000D03*
X59944000Y-30988000D03*
D20*
X57404000Y-30988000D03*
D19*
X62484000Y-29718000D03*
X62484000Y-28448000D03*
X62484000Y-27178000D03*
X62484000Y-25908000D03*
X61214000Y-29718000D03*
X59944000Y-29718000D03*
X58674000Y-29718000D03*
D20*
X57404000Y-29718000D03*
D19*
X61214000Y-28448000D03*
X59944000Y-28448000D03*
X58674000Y-28448000D03*
D20*
X57404000Y-28448000D03*
D19*
X61214000Y-27178000D03*
X59944000Y-27178000D03*
X58674000Y-27178000D03*
D20*
X57404000Y-27178000D03*
D19*
X61214000Y-25908000D03*
X59944000Y-25908000D03*
X58674000Y-25908000D03*
D20*
X57404000Y-25908000D03*
D18*
X33250000Y-45750000D03*
X14500000Y-3250000D03*
D21*
X45466000Y-1778000D03*
D22*
X48006000Y-1778000D03*
X50546000Y-1778000D03*
X53086000Y-1778000D03*
M02*
