G04 #@! TF.FileFunction,Legend,Top*
%FSLAX46Y46*%
G04 Gerber Fmt 4.6, Leading zero omitted, Abs format (unit mm)*
G04 Created by KiCad (PCBNEW 4.0.7-e2-6376~61~ubuntu18.04.1) date Tue Jul 28 22:42:26 2020*
%MOMM*%
%LPD*%
G01*
G04 APERTURE LIST*
%ADD10C,0.100000*%
%ADD11C,0.150000*%
%ADD12C,0.120000*%
%ADD13C,0.152400*%
%ADD14C,0.142240*%
G04 APERTURE END LIST*
D10*
D11*
X17114000Y-49770000D02*
X20114000Y-49770000D01*
X26114000Y-53270000D02*
X26114000Y-49770000D01*
X20114000Y-53270000D02*
X20114000Y-49770000D01*
X20114000Y-53270000D02*
X26114000Y-53270000D01*
X29114000Y-49770000D02*
X29114000Y-38170000D01*
X17114000Y-38170000D02*
X29114000Y-38170000D01*
X17114000Y-49770000D02*
X17114000Y-38170000D01*
X26114000Y-49770000D02*
X29114000Y-49770000D01*
D12*
X5000Y-34799000D02*
X10155000Y-34799000D01*
X5000Y-44449000D02*
X10155000Y-44449000D01*
X5000Y-34799000D02*
X5000Y-44449000D01*
X10155000Y-34799000D02*
X10155000Y-44449000D01*
X-1515000Y-34975000D02*
X4000Y-34975000D01*
X-1515000Y-37284000D02*
X4000Y-37284000D01*
X-1515000Y-34975000D02*
X-1515000Y-37284000D01*
X4000Y-34975000D02*
X4000Y-37284000D01*
X-1515000Y-36129000D02*
X-755000Y-36129000D01*
X5000Y-24385000D02*
X10155000Y-24385000D01*
X5000Y-34035000D02*
X10155000Y-34035000D01*
X5000Y-24385000D02*
X5000Y-34035000D01*
X10155000Y-24385000D02*
X10155000Y-34035000D01*
X-1515000Y-24561000D02*
X4000Y-24561000D01*
X-1515000Y-26870000D02*
X4000Y-26870000D01*
X-1515000Y-24561000D02*
X-1515000Y-26870000D01*
X4000Y-24561000D02*
X4000Y-26870000D01*
X-1515000Y-25715000D02*
X-755000Y-25715000D01*
X5000Y-13971000D02*
X10155000Y-13971000D01*
X5000Y-23621000D02*
X10155000Y-23621000D01*
X5000Y-13971000D02*
X5000Y-23621000D01*
X10155000Y-13971000D02*
X10155000Y-23621000D01*
X-1515000Y-14147000D02*
X4000Y-14147000D01*
X-1515000Y-16456000D02*
X4000Y-16456000D01*
X-1515000Y-14147000D02*
X-1515000Y-16456000D01*
X4000Y-14147000D02*
X4000Y-16456000D01*
X-1515000Y-15301000D02*
X-755000Y-15301000D01*
X5000Y-3557000D02*
X10155000Y-3557000D01*
X5000Y-13207000D02*
X10155000Y-13207000D01*
X5000Y-3557000D02*
X5000Y-13207000D01*
X10155000Y-3557000D02*
X10155000Y-13207000D01*
X-1515000Y-3733000D02*
X4000Y-3733000D01*
X-1515000Y-6042000D02*
X4000Y-6042000D01*
X-1515000Y-3733000D02*
X-1515000Y-6042000D01*
X4000Y-3733000D02*
X4000Y-6042000D01*
X-1515000Y-4887000D02*
X-755000Y-4887000D01*
D11*
X42204000Y-49820000D02*
X42204000Y-50320000D01*
X37204000Y-48320000D02*
X47204000Y-48320000D01*
X37204000Y-43420000D02*
X47204000Y-43420000D01*
X37204000Y-49820000D02*
X47204000Y-49820000D01*
X37204000Y-50320000D02*
X47204000Y-50320000D01*
X47204000Y-50320000D02*
X47204000Y-40520000D01*
X47204000Y-40520000D02*
X37204000Y-40520000D01*
X37204000Y-40520000D02*
X37204000Y-50320000D01*
X46704000Y-45820000D02*
G75*
G03X46704000Y-45820000I-2000000J0D01*
G01*
X41704000Y-45820000D02*
G75*
G03X41704000Y-45820000I-2000000J0D01*
G01*
X52364000Y-49820000D02*
X52364000Y-50320000D01*
X47364000Y-48320000D02*
X57364000Y-48320000D01*
X47364000Y-43420000D02*
X57364000Y-43420000D01*
X47364000Y-49820000D02*
X57364000Y-49820000D01*
X47364000Y-50320000D02*
X57364000Y-50320000D01*
X57364000Y-50320000D02*
X57364000Y-40520000D01*
X57364000Y-40520000D02*
X47364000Y-40520000D01*
X47364000Y-40520000D02*
X47364000Y-50320000D01*
X56864000Y-45820000D02*
G75*
G03X56864000Y-45820000I-2000000J0D01*
G01*
X51864000Y-45820000D02*
G75*
G03X51864000Y-45820000I-2000000J0D01*
G01*
X62524000Y-49820000D02*
X62524000Y-50320000D01*
X57524000Y-48320000D02*
X67524000Y-48320000D01*
X57524000Y-43420000D02*
X67524000Y-43420000D01*
X57524000Y-49820000D02*
X67524000Y-49820000D01*
X57524000Y-50320000D02*
X67524000Y-50320000D01*
X67524000Y-50320000D02*
X67524000Y-40520000D01*
X67524000Y-40520000D02*
X57524000Y-40520000D01*
X57524000Y-40520000D02*
X57524000Y-50320000D01*
X67024000Y-45820000D02*
G75*
G03X67024000Y-45820000I-2000000J0D01*
G01*
X62024000Y-45820000D02*
G75*
G03X62024000Y-45820000I-2000000J0D01*
G01*
D12*
X57555000Y-22368000D02*
X57555000Y-6588000D01*
X57555000Y-6588000D02*
X66905000Y-6588000D01*
X66905000Y-6588000D02*
X66905000Y-22368000D01*
X66905000Y-22368000D02*
X57555000Y-22368000D01*
X67155000Y-22618000D02*
X67155000Y-20078000D01*
X67155000Y-22618000D02*
X64615000Y-22618000D01*
D11*
X40887000Y-37927000D02*
X41112000Y-37927000D01*
X40887000Y-32177000D02*
X41187000Y-32177000D01*
X49537000Y-32177000D02*
X49237000Y-32177000D01*
X49537000Y-37927000D02*
X49237000Y-37927000D01*
X40887000Y-37927000D02*
X40887000Y-32177000D01*
X49537000Y-37927000D02*
X49537000Y-32177000D01*
X41112000Y-37927000D02*
X41112000Y-39527000D01*
D12*
X62946000Y-31898000D02*
X64446000Y-31898000D01*
X64446000Y-31898000D02*
X64446000Y-31628000D01*
X64446000Y-31628000D02*
X67276000Y-31628000D01*
X62946000Y-24998000D02*
X64446000Y-24998000D01*
X64446000Y-24998000D02*
X64446000Y-25268000D01*
X64446000Y-25268000D02*
X65546000Y-25268000D01*
X16292000Y-10430000D02*
X16292000Y-12430000D01*
X16292000Y-12430000D02*
X20192000Y-12430000D01*
X16292000Y-10430000D02*
X20192000Y-10430000D01*
X19142000Y-14596000D02*
X17942000Y-14596000D01*
X17942000Y-12836000D02*
X19142000Y-12836000D01*
D11*
X41841000Y-8567000D02*
X41841000Y-8792000D01*
X49091000Y-8567000D02*
X49091000Y-8892000D01*
X49091000Y-15817000D02*
X49091000Y-15492000D01*
X41841000Y-15817000D02*
X41841000Y-15492000D01*
X41841000Y-8567000D02*
X42166000Y-8567000D01*
X41841000Y-15817000D02*
X42166000Y-15817000D01*
X49091000Y-15817000D02*
X48766000Y-15817000D01*
X49091000Y-8567000D02*
X48766000Y-8567000D01*
X41841000Y-8792000D02*
X40416000Y-8792000D01*
D12*
X54862000Y-8946000D02*
X54862000Y-8016000D01*
X54862000Y-5786000D02*
X54862000Y-6716000D01*
X54862000Y-5786000D02*
X52702000Y-5786000D01*
X54862000Y-8946000D02*
X53402000Y-8946000D01*
X54602000Y-15406000D02*
X53602000Y-15406000D01*
X53602000Y-17106000D02*
X54602000Y-17106000D01*
X54602000Y-13374000D02*
X53602000Y-13374000D01*
X53602000Y-15074000D02*
X54602000Y-15074000D01*
X37946000Y-11184000D02*
X37946000Y-12184000D01*
X39646000Y-12184000D02*
X39646000Y-11184000D01*
X40648000Y-27266000D02*
X41648000Y-27266000D01*
X41648000Y-25566000D02*
X40648000Y-25566000D01*
X51300000Y-25566000D02*
X50300000Y-25566000D01*
X50300000Y-27266000D02*
X51300000Y-27266000D01*
X69430000Y-36568000D02*
X69430000Y-35568000D01*
X67730000Y-35568000D02*
X67730000Y-36568000D01*
X69430000Y-28948000D02*
X69430000Y-27948000D01*
X67730000Y-27948000D02*
X67730000Y-28948000D01*
X54618000Y-3722000D02*
X53618000Y-3722000D01*
X53618000Y-5422000D02*
X54618000Y-5422000D01*
X54602000Y-11342000D02*
X53602000Y-11342000D01*
X53602000Y-13042000D02*
X54602000Y-13042000D01*
X20232000Y-27186000D02*
X20232000Y-28186000D01*
X21932000Y-28186000D02*
X21932000Y-27186000D01*
X20232000Y-7628000D02*
X20232000Y-8628000D01*
X21932000Y-8628000D02*
X21932000Y-7628000D01*
X39940000Y-5356000D02*
X41340000Y-5356000D01*
X41340000Y-5356000D02*
X41340000Y-2556000D01*
X39940000Y-5356000D02*
X39940000Y-2556000D01*
X67880000Y-49552000D02*
X69280000Y-49552000D01*
X69280000Y-49552000D02*
X69280000Y-46752000D01*
X67880000Y-49552000D02*
X67880000Y-46752000D01*
X29500000Y-29734000D02*
X29500000Y-31734000D01*
X29500000Y-31734000D02*
X33400000Y-31734000D01*
X29500000Y-29734000D02*
X33400000Y-29734000D01*
X16292000Y-29988000D02*
X16292000Y-31988000D01*
X16292000Y-31988000D02*
X20192000Y-31988000D01*
X16292000Y-29988000D02*
X20192000Y-29988000D01*
X34000000Y-29194000D02*
X34000000Y-27194000D01*
X34000000Y-27194000D02*
X30100000Y-27194000D01*
X34000000Y-29194000D02*
X30100000Y-29194000D01*
X29500000Y-10176000D02*
X29500000Y-12176000D01*
X29500000Y-12176000D02*
X33400000Y-12176000D01*
X29500000Y-10176000D02*
X33400000Y-10176000D01*
X34000000Y-9636000D02*
X34000000Y-7636000D01*
X34000000Y-7636000D02*
X30100000Y-7636000D01*
X34000000Y-9636000D02*
X30100000Y-9636000D01*
X54702000Y-19168000D02*
X53502000Y-19168000D01*
X53502000Y-17408000D02*
X54702000Y-17408000D01*
X69460000Y-13878000D02*
X69460000Y-15078000D01*
X67700000Y-15078000D02*
X67700000Y-13878000D01*
X41792000Y-4156000D02*
X41792000Y-2956000D01*
X43552000Y-2956000D02*
X43552000Y-4156000D01*
X46574000Y-27296000D02*
X45374000Y-27296000D01*
X45374000Y-25536000D02*
X46574000Y-25536000D01*
X67700000Y-43780000D02*
X67700000Y-42580000D01*
X69460000Y-42580000D02*
X69460000Y-43780000D01*
X32350000Y-36186000D02*
X31150000Y-36186000D01*
X31150000Y-34426000D02*
X32350000Y-34426000D01*
X21218000Y-35398000D02*
X21218000Y-34198000D01*
X22978000Y-34198000D02*
X22978000Y-35398000D01*
X27314000Y-35398000D02*
X27314000Y-34198000D01*
X29074000Y-34198000D02*
X29074000Y-35398000D01*
X23250000Y-35398000D02*
X23250000Y-34198000D01*
X25010000Y-34198000D02*
X25010000Y-35398000D01*
X25282000Y-35398000D02*
X25282000Y-34198000D01*
X27042000Y-34198000D02*
X27042000Y-35398000D01*
X31150000Y-32394000D02*
X32350000Y-32394000D01*
X32350000Y-34154000D02*
X31150000Y-34154000D01*
X19142000Y-34154000D02*
X17942000Y-34154000D01*
X17942000Y-32394000D02*
X19142000Y-32394000D01*
X14106000Y-32350000D02*
X14106000Y-31150000D01*
X15866000Y-31150000D02*
X15866000Y-32350000D01*
X31150000Y-25028000D02*
X32350000Y-25028000D01*
X32350000Y-26788000D02*
X31150000Y-26788000D01*
X32350000Y-16628000D02*
X31150000Y-16628000D01*
X31150000Y-14868000D02*
X32350000Y-14868000D01*
X21218000Y-15840000D02*
X21218000Y-14640000D01*
X22978000Y-14640000D02*
X22978000Y-15840000D01*
X27314000Y-15840000D02*
X27314000Y-14640000D01*
X29074000Y-14640000D02*
X29074000Y-15840000D01*
X23250000Y-15840000D02*
X23250000Y-14640000D01*
X25010000Y-14640000D02*
X25010000Y-15840000D01*
X25282000Y-15840000D02*
X25282000Y-14640000D01*
X27042000Y-14640000D02*
X27042000Y-15840000D01*
X31150000Y-12836000D02*
X32350000Y-12836000D01*
X32350000Y-14596000D02*
X31150000Y-14596000D01*
X14106000Y-12792000D02*
X14106000Y-11592000D01*
X15866000Y-11592000D02*
X15866000Y-12792000D01*
X31150000Y-5470000D02*
X32350000Y-5470000D01*
X32350000Y-7230000D02*
X31150000Y-7230000D01*
D11*
X12869000Y-23407000D02*
X12994000Y-23407000D01*
X12869000Y-18757000D02*
X13094000Y-18757000D01*
X18119000Y-18757000D02*
X17894000Y-18757000D01*
X18119000Y-23407000D02*
X17894000Y-23407000D01*
X12869000Y-23407000D02*
X12869000Y-18757000D01*
X18119000Y-23407000D02*
X18119000Y-18757000D01*
X12994000Y-23407000D02*
X12994000Y-24757000D01*
X22521000Y-30011000D02*
X22646000Y-30011000D01*
X22521000Y-25361000D02*
X22746000Y-25361000D01*
X27771000Y-25361000D02*
X27546000Y-25361000D01*
X27771000Y-30011000D02*
X27546000Y-30011000D01*
X22521000Y-30011000D02*
X22521000Y-25361000D01*
X27771000Y-30011000D02*
X27771000Y-25361000D01*
X22646000Y-30011000D02*
X22646000Y-31361000D01*
X22521000Y-10453000D02*
X22646000Y-10453000D01*
X22521000Y-5803000D02*
X22746000Y-5803000D01*
X27771000Y-5803000D02*
X27546000Y-5803000D01*
X27771000Y-10453000D02*
X27546000Y-10453000D01*
X22521000Y-10453000D02*
X22521000Y-5803000D01*
X27771000Y-10453000D02*
X27771000Y-5803000D01*
X22646000Y-10453000D02*
X22646000Y-11803000D01*
D12*
X51874000Y-20056000D02*
X39274000Y-20056000D01*
X39274000Y-20056000D02*
X39274000Y-25156000D01*
X39274000Y-25156000D02*
X51874000Y-25156000D01*
X10580000Y-20582000D02*
X10580000Y-21582000D01*
X12280000Y-21582000D02*
X12280000Y-20582000D01*
X40220000Y-35552000D02*
X40220000Y-34552000D01*
X38520000Y-34552000D02*
X38520000Y-35552000D01*
X56730000Y-35552000D02*
X56730000Y-34552000D01*
X55030000Y-34552000D02*
X55030000Y-35552000D01*
X53844000Y-32762000D02*
X53444000Y-32762000D01*
X54614000Y-37342000D02*
X53444000Y-37342000D01*
X50034000Y-37342000D02*
X51204000Y-37342000D01*
X50804000Y-32762000D02*
X51204000Y-32762000D01*
X50034000Y-33532000D02*
X50034000Y-37342000D01*
X50034000Y-33532000D02*
X50804000Y-32762000D01*
X54614000Y-33532000D02*
X54614000Y-37342000D01*
X54614000Y-33532000D02*
X53844000Y-32762000D01*
D11*
X62519000Y-33993000D02*
X62469000Y-33993000D01*
X62519000Y-38143000D02*
X62374000Y-38143000D01*
X57369000Y-38143000D02*
X57514000Y-38143000D01*
X57369000Y-33993000D02*
X57514000Y-33993000D01*
X62519000Y-33993000D02*
X62519000Y-38143000D01*
X57369000Y-33993000D02*
X57369000Y-38143000D01*
X62469000Y-33993000D02*
X62469000Y-32593000D01*
D12*
X66544000Y-33778000D02*
X66144000Y-33778000D01*
X67314000Y-38358000D02*
X66144000Y-38358000D01*
X62734000Y-38358000D02*
X63904000Y-38358000D01*
X63504000Y-33778000D02*
X63904000Y-33778000D01*
X62734000Y-34548000D02*
X62734000Y-38358000D01*
X62734000Y-34548000D02*
X63504000Y-33778000D01*
X67314000Y-34548000D02*
X67314000Y-38358000D01*
X67314000Y-34548000D02*
X66544000Y-33778000D01*
X54702000Y-11040000D02*
X53502000Y-11040000D01*
X53502000Y-9280000D02*
X54702000Y-9280000D01*
X69430000Y-10406000D02*
X69430000Y-9406000D01*
X67730000Y-9406000D02*
X67730000Y-10406000D01*
X54416000Y-3108000D02*
X54416000Y-448000D01*
X46736000Y-3108000D02*
X54416000Y-3108000D01*
X46736000Y-448000D02*
X54416000Y-448000D01*
X46736000Y-3108000D02*
X46736000Y-448000D01*
X45466000Y-3108000D02*
X44136000Y-3108000D01*
X44136000Y-3108000D02*
X44136000Y-1778000D01*
D13*
X17509067Y-37146895D02*
X17509067Y-37727467D01*
X17470363Y-37843581D01*
X17392953Y-37920990D01*
X17276839Y-37959695D01*
X17199429Y-37959695D01*
X18321867Y-37959695D02*
X17857410Y-37959695D01*
X18089639Y-37959695D02*
X18089639Y-37146895D01*
X18012229Y-37263010D01*
X17934820Y-37340419D01*
X17857410Y-37379124D01*
X11289695Y-36336514D02*
X10902648Y-36607447D01*
X11289695Y-36800971D02*
X10476895Y-36800971D01*
X10476895Y-36491333D01*
X10515600Y-36413924D01*
X10554305Y-36375219D01*
X10631714Y-36336514D01*
X10747829Y-36336514D01*
X10825238Y-36375219D01*
X10863943Y-36413924D01*
X10902648Y-36491333D01*
X10902648Y-36800971D01*
X11289695Y-35562419D02*
X11289695Y-36026876D01*
X11289695Y-35794647D02*
X10476895Y-35794647D01*
X10593010Y-35872057D01*
X10670419Y-35949466D01*
X10709124Y-36026876D01*
X10476895Y-34865733D02*
X10476895Y-35020552D01*
X10515600Y-35097962D01*
X10554305Y-35136667D01*
X10670419Y-35214076D01*
X10825238Y-35252781D01*
X11134876Y-35252781D01*
X11212286Y-35214076D01*
X11250990Y-35175371D01*
X11289695Y-35097962D01*
X11289695Y-34943143D01*
X11250990Y-34865733D01*
X11212286Y-34827029D01*
X11134876Y-34788324D01*
X10941352Y-34788324D01*
X10863943Y-34827029D01*
X10825238Y-34865733D01*
X10786533Y-34943143D01*
X10786533Y-35097962D01*
X10825238Y-35175371D01*
X10863943Y-35214076D01*
X10941352Y-35252781D01*
X11289695Y-25027466D02*
X10902648Y-25298399D01*
X11289695Y-25491923D02*
X10476895Y-25491923D01*
X10476895Y-25182285D01*
X10515600Y-25104876D01*
X10554305Y-25066171D01*
X10631714Y-25027466D01*
X10747829Y-25027466D01*
X10825238Y-25066171D01*
X10863943Y-25104876D01*
X10902648Y-25182285D01*
X10902648Y-25491923D01*
X11289695Y-24253371D02*
X11289695Y-24717828D01*
X11289695Y-24485599D02*
X10476895Y-24485599D01*
X10593010Y-24563009D01*
X10670419Y-24640418D01*
X10709124Y-24717828D01*
X11289695Y-14867466D02*
X10902648Y-15138399D01*
X11289695Y-15331923D02*
X10476895Y-15331923D01*
X10476895Y-15022285D01*
X10515600Y-14944876D01*
X10554305Y-14906171D01*
X10631714Y-14867466D01*
X10747829Y-14867466D01*
X10825238Y-14906171D01*
X10863943Y-14944876D01*
X10902648Y-15022285D01*
X10902648Y-15331923D01*
X10554305Y-14557828D02*
X10515600Y-14519123D01*
X10476895Y-14441714D01*
X10476895Y-14248190D01*
X10515600Y-14170780D01*
X10554305Y-14132076D01*
X10631714Y-14093371D01*
X10709124Y-14093371D01*
X10825238Y-14132076D01*
X11289695Y-14596533D01*
X11289695Y-14093371D01*
X11289695Y-5094514D02*
X10902648Y-5365447D01*
X11289695Y-5558971D02*
X10476895Y-5558971D01*
X10476895Y-5249333D01*
X10515600Y-5171924D01*
X10554305Y-5133219D01*
X10631714Y-5094514D01*
X10747829Y-5094514D01*
X10825238Y-5133219D01*
X10863943Y-5171924D01*
X10902648Y-5249333D01*
X10902648Y-5558971D01*
X10554305Y-4784876D02*
X10515600Y-4746171D01*
X10476895Y-4668762D01*
X10476895Y-4475238D01*
X10515600Y-4397828D01*
X10554305Y-4359124D01*
X10631714Y-4320419D01*
X10709124Y-4320419D01*
X10825238Y-4359124D01*
X11289695Y-4823581D01*
X11289695Y-4320419D01*
X10476895Y-3623733D02*
X10476895Y-3778552D01*
X10515600Y-3855962D01*
X10554305Y-3894667D01*
X10670419Y-3972076D01*
X10825238Y-4010781D01*
X11134876Y-4010781D01*
X11212286Y-3972076D01*
X11250990Y-3933371D01*
X11289695Y-3855962D01*
X11289695Y-3701143D01*
X11250990Y-3623733D01*
X11212286Y-3585029D01*
X11134876Y-3546324D01*
X10941352Y-3546324D01*
X10863943Y-3585029D01*
X10825238Y-3623733D01*
X10786533Y-3701143D01*
X10786533Y-3855962D01*
X10825238Y-3933371D01*
X10863943Y-3972076D01*
X10941352Y-4010781D01*
X37575067Y-39432895D02*
X37575067Y-40013467D01*
X37536363Y-40129581D01*
X37458953Y-40206990D01*
X37342839Y-40245695D01*
X37265429Y-40245695D01*
X38310458Y-39703829D02*
X38310458Y-40245695D01*
X38116934Y-39394190D02*
X37923410Y-39974762D01*
X38426572Y-39974762D01*
X52093067Y-39432895D02*
X52093067Y-40013467D01*
X52054363Y-40129581D01*
X51976953Y-40206990D01*
X51860839Y-40245695D01*
X51783429Y-40245695D01*
X52867162Y-39432895D02*
X52480115Y-39432895D01*
X52441410Y-39819943D01*
X52480115Y-39781238D01*
X52557524Y-39742533D01*
X52751048Y-39742533D01*
X52828458Y-39781238D01*
X52867162Y-39819943D01*
X52905867Y-39897352D01*
X52905867Y-40090876D01*
X52867162Y-40168286D01*
X52828458Y-40206990D01*
X52751048Y-40245695D01*
X52557524Y-40245695D01*
X52480115Y-40206990D01*
X52441410Y-40168286D01*
X66531067Y-39432895D02*
X66531067Y-40013467D01*
X66492363Y-40129581D01*
X66414953Y-40206990D01*
X66298839Y-40245695D01*
X66221429Y-40245695D01*
X67034229Y-39781238D02*
X66956820Y-39742533D01*
X66918115Y-39703829D01*
X66879410Y-39626419D01*
X66879410Y-39587714D01*
X66918115Y-39510305D01*
X66956820Y-39471600D01*
X67034229Y-39432895D01*
X67189048Y-39432895D01*
X67266458Y-39471600D01*
X67305162Y-39510305D01*
X67343867Y-39587714D01*
X67343867Y-39626419D01*
X67305162Y-39703829D01*
X67266458Y-39742533D01*
X67189048Y-39781238D01*
X67034229Y-39781238D01*
X66956820Y-39819943D01*
X66918115Y-39858648D01*
X66879410Y-39936057D01*
X66879410Y-40090876D01*
X66918115Y-40168286D01*
X66956820Y-40206990D01*
X67034229Y-40245695D01*
X67189048Y-40245695D01*
X67266458Y-40206990D01*
X67305162Y-40168286D01*
X67343867Y-40090876D01*
X67343867Y-39936057D01*
X67305162Y-39858648D01*
X67266458Y-39819943D01*
X67189048Y-39781238D01*
X66277067Y-23176895D02*
X66277067Y-23757467D01*
X66238363Y-23873581D01*
X66160953Y-23950990D01*
X66044839Y-23989695D01*
X65967429Y-23989695D01*
X66625410Y-23254305D02*
X66664115Y-23215600D01*
X66741524Y-23176895D01*
X66935048Y-23176895D01*
X67012458Y-23215600D01*
X67051162Y-23254305D01*
X67089867Y-23331714D01*
X67089867Y-23409124D01*
X67051162Y-23525238D01*
X66586705Y-23989695D01*
X67089867Y-23989695D01*
X39686895Y-31607276D02*
X40344876Y-31607276D01*
X40422286Y-31568571D01*
X40460990Y-31529867D01*
X40499695Y-31452457D01*
X40499695Y-31297638D01*
X40460990Y-31220229D01*
X40422286Y-31181524D01*
X40344876Y-31142819D01*
X39686895Y-31142819D01*
X39686895Y-30833181D02*
X39686895Y-30330019D01*
X39996533Y-30600952D01*
X39996533Y-30484838D01*
X40035238Y-30407428D01*
X40073943Y-30368724D01*
X40151352Y-30330019D01*
X40344876Y-30330019D01*
X40422286Y-30368724D01*
X40460990Y-30407428D01*
X40499695Y-30484838D01*
X40499695Y-30717066D01*
X40460990Y-30794476D01*
X40422286Y-30833181D01*
X55434895Y-29067276D02*
X56092876Y-29067276D01*
X56170286Y-29028571D01*
X56208990Y-28989867D01*
X56247695Y-28912457D01*
X56247695Y-28757638D01*
X56208990Y-28680229D01*
X56170286Y-28641524D01*
X56092876Y-28602819D01*
X55434895Y-28602819D01*
X55705829Y-27867428D02*
X56247695Y-27867428D01*
X55396190Y-28060952D02*
X55976762Y-28254476D01*
X55976762Y-27751314D01*
X16164077Y-10019695D02*
X16164077Y-9206895D01*
X16357601Y-9206895D01*
X16473715Y-9245600D01*
X16551124Y-9323010D01*
X16589829Y-9400419D01*
X16628534Y-9555238D01*
X16628534Y-9671352D01*
X16589829Y-9826171D01*
X16551124Y-9903581D01*
X16473715Y-9980990D01*
X16357601Y-10019695D01*
X16164077Y-10019695D01*
X16899467Y-9206895D02*
X17441334Y-9206895D01*
X17092991Y-10019695D01*
X18019486Y-15607695D02*
X17748553Y-15220648D01*
X17555029Y-15607695D02*
X17555029Y-14794895D01*
X17864667Y-14794895D01*
X17942076Y-14833600D01*
X17980781Y-14872305D01*
X18019486Y-14949714D01*
X18019486Y-15065829D01*
X17980781Y-15143238D01*
X17942076Y-15181943D01*
X17864667Y-15220648D01*
X17555029Y-15220648D01*
X18329124Y-14872305D02*
X18367829Y-14833600D01*
X18445238Y-14794895D01*
X18638762Y-14794895D01*
X18716172Y-14833600D01*
X18754876Y-14872305D01*
X18793581Y-14949714D01*
X18793581Y-15027124D01*
X18754876Y-15143238D01*
X18290419Y-15607695D01*
X18793581Y-15607695D01*
X19064514Y-14794895D02*
X19567676Y-14794895D01*
X19296743Y-15104533D01*
X19412857Y-15104533D01*
X19490267Y-15143238D01*
X19528971Y-15181943D01*
X19567676Y-15259352D01*
X19567676Y-15452876D01*
X19528971Y-15530286D01*
X19490267Y-15568990D01*
X19412857Y-15607695D01*
X19180629Y-15607695D01*
X19103219Y-15568990D01*
X19064514Y-15530286D01*
X38496724Y-8698895D02*
X38496724Y-9356876D01*
X38535429Y-9434286D01*
X38574133Y-9472990D01*
X38651543Y-9511695D01*
X38806362Y-9511695D01*
X38883771Y-9472990D01*
X38922476Y-9434286D01*
X38961181Y-9356876D01*
X38961181Y-8698895D01*
X39309524Y-8776305D02*
X39348229Y-8737600D01*
X39425638Y-8698895D01*
X39619162Y-8698895D01*
X39696572Y-8737600D01*
X39735276Y-8776305D01*
X39773981Y-8853714D01*
X39773981Y-8931124D01*
X39735276Y-9047238D01*
X39270819Y-9511695D01*
X39773981Y-9511695D01*
X56196895Y-7985276D02*
X56854876Y-7985276D01*
X56932286Y-7946571D01*
X56970990Y-7907867D01*
X57009695Y-7830457D01*
X57009695Y-7675638D01*
X56970990Y-7598229D01*
X56932286Y-7559524D01*
X56854876Y-7520819D01*
X56196895Y-7520819D01*
X56196895Y-6746724D02*
X56196895Y-7133771D01*
X56583943Y-7172476D01*
X56545238Y-7133771D01*
X56506533Y-7056362D01*
X56506533Y-6862838D01*
X56545238Y-6785428D01*
X56583943Y-6746724D01*
X56661352Y-6708019D01*
X56854876Y-6708019D01*
X56932286Y-6746724D01*
X56970990Y-6785428D01*
X57009695Y-6862838D01*
X57009695Y-7056362D01*
X56970990Y-7133771D01*
X56932286Y-7172476D01*
X56506534Y-16546286D02*
X56467829Y-16584990D01*
X56351715Y-16623695D01*
X56274305Y-16623695D01*
X56158191Y-16584990D01*
X56080782Y-16507581D01*
X56042077Y-16430171D01*
X56003372Y-16275352D01*
X56003372Y-16159238D01*
X56042077Y-16004419D01*
X56080782Y-15927010D01*
X56158191Y-15849600D01*
X56274305Y-15810895D01*
X56351715Y-15810895D01*
X56467829Y-15849600D01*
X56506534Y-15888305D01*
X56816172Y-15888305D02*
X56854877Y-15849600D01*
X56932286Y-15810895D01*
X57125810Y-15810895D01*
X57203220Y-15849600D01*
X57241924Y-15888305D01*
X57280629Y-15965714D01*
X57280629Y-16043124D01*
X57241924Y-16159238D01*
X56777467Y-16623695D01*
X57280629Y-16623695D01*
X56506534Y-14514286D02*
X56467829Y-14552990D01*
X56351715Y-14591695D01*
X56274305Y-14591695D01*
X56158191Y-14552990D01*
X56080782Y-14475581D01*
X56042077Y-14398171D01*
X56003372Y-14243352D01*
X56003372Y-14127238D01*
X56042077Y-13972419D01*
X56080782Y-13895010D01*
X56158191Y-13817600D01*
X56274305Y-13778895D01*
X56351715Y-13778895D01*
X56467829Y-13817600D01*
X56506534Y-13856305D01*
X56777467Y-13778895D02*
X57280629Y-13778895D01*
X57009696Y-14088533D01*
X57125810Y-14088533D01*
X57203220Y-14127238D01*
X57241924Y-14165943D01*
X57280629Y-14243352D01*
X57280629Y-14436876D01*
X57241924Y-14514286D01*
X57203220Y-14552990D01*
X57125810Y-14591695D01*
X56893582Y-14591695D01*
X56816172Y-14552990D01*
X56777467Y-14514286D01*
X37586286Y-11819466D02*
X37624990Y-11858171D01*
X37663695Y-11974285D01*
X37663695Y-12051695D01*
X37624990Y-12167809D01*
X37547581Y-12245218D01*
X37470171Y-12283923D01*
X37315352Y-12322628D01*
X37199238Y-12322628D01*
X37044419Y-12283923D01*
X36967010Y-12245218D01*
X36889600Y-12167809D01*
X36850895Y-12051695D01*
X36850895Y-11974285D01*
X36889600Y-11858171D01*
X36928305Y-11819466D01*
X37121829Y-11122780D02*
X37663695Y-11122780D01*
X36812190Y-11316304D02*
X37392762Y-11509828D01*
X37392762Y-11006666D01*
X41012534Y-28206286D02*
X40973829Y-28244990D01*
X40857715Y-28283695D01*
X40780305Y-28283695D01*
X40664191Y-28244990D01*
X40586782Y-28167581D01*
X40548077Y-28090171D01*
X40509372Y-27935352D01*
X40509372Y-27819238D01*
X40548077Y-27664419D01*
X40586782Y-27587010D01*
X40664191Y-27509600D01*
X40780305Y-27470895D01*
X40857715Y-27470895D01*
X40973829Y-27509600D01*
X41012534Y-27548305D01*
X41747924Y-27470895D02*
X41360877Y-27470895D01*
X41322172Y-27857943D01*
X41360877Y-27819238D01*
X41438286Y-27780533D01*
X41631810Y-27780533D01*
X41709220Y-27819238D01*
X41747924Y-27857943D01*
X41786629Y-27935352D01*
X41786629Y-28128876D01*
X41747924Y-28206286D01*
X41709220Y-28244990D01*
X41631810Y-28283695D01*
X41438286Y-28283695D01*
X41360877Y-28244990D01*
X41322172Y-28206286D01*
X50664534Y-28230286D02*
X50625829Y-28268990D01*
X50509715Y-28307695D01*
X50432305Y-28307695D01*
X50316191Y-28268990D01*
X50238782Y-28191581D01*
X50200077Y-28114171D01*
X50161372Y-27959352D01*
X50161372Y-27843238D01*
X50200077Y-27688419D01*
X50238782Y-27611010D01*
X50316191Y-27533600D01*
X50432305Y-27494895D01*
X50509715Y-27494895D01*
X50625829Y-27533600D01*
X50664534Y-27572305D01*
X51361220Y-27494895D02*
X51206401Y-27494895D01*
X51128991Y-27533600D01*
X51090286Y-27572305D01*
X51012877Y-27688419D01*
X50974172Y-27843238D01*
X50974172Y-28152876D01*
X51012877Y-28230286D01*
X51051582Y-28268990D01*
X51128991Y-28307695D01*
X51283810Y-28307695D01*
X51361220Y-28268990D01*
X51399924Y-28230286D01*
X51438629Y-28152876D01*
X51438629Y-27959352D01*
X51399924Y-27881943D01*
X51361220Y-27843238D01*
X51283810Y-27804533D01*
X51128991Y-27804533D01*
X51051582Y-27843238D01*
X51012877Y-27881943D01*
X50974172Y-27959352D01*
X68870286Y-33542514D02*
X68908990Y-33581219D01*
X68947695Y-33697333D01*
X68947695Y-33774743D01*
X68908990Y-33890857D01*
X68831581Y-33968266D01*
X68754171Y-34006971D01*
X68599352Y-34045676D01*
X68483238Y-34045676D01*
X68328419Y-34006971D01*
X68251010Y-33968266D01*
X68173600Y-33890857D01*
X68134895Y-33774743D01*
X68134895Y-33697333D01*
X68173600Y-33581219D01*
X68212305Y-33542514D01*
X68947695Y-32768419D02*
X68947695Y-33232876D01*
X68947695Y-33000647D02*
X68134895Y-33000647D01*
X68251010Y-33078057D01*
X68328419Y-33155466D01*
X68367124Y-33232876D01*
X68947695Y-31994324D02*
X68947695Y-32458781D01*
X68947695Y-32226552D02*
X68134895Y-32226552D01*
X68251010Y-32303962D01*
X68328419Y-32381371D01*
X68367124Y-32458781D01*
X68870286Y-25922514D02*
X68908990Y-25961219D01*
X68947695Y-26077333D01*
X68947695Y-26154743D01*
X68908990Y-26270857D01*
X68831581Y-26348266D01*
X68754171Y-26386971D01*
X68599352Y-26425676D01*
X68483238Y-26425676D01*
X68328419Y-26386971D01*
X68251010Y-26348266D01*
X68173600Y-26270857D01*
X68134895Y-26154743D01*
X68134895Y-26077333D01*
X68173600Y-25961219D01*
X68212305Y-25922514D01*
X68947695Y-25148419D02*
X68947695Y-25612876D01*
X68947695Y-25380647D02*
X68134895Y-25380647D01*
X68251010Y-25458057D01*
X68328419Y-25535466D01*
X68367124Y-25612876D01*
X68212305Y-24838781D02*
X68173600Y-24800076D01*
X68134895Y-24722667D01*
X68134895Y-24529143D01*
X68173600Y-24451733D01*
X68212305Y-24413029D01*
X68289714Y-24374324D01*
X68367124Y-24374324D01*
X68483238Y-24413029D01*
X68947695Y-24877486D01*
X68947695Y-24374324D01*
X56627486Y-4862286D02*
X56588781Y-4900990D01*
X56472667Y-4939695D01*
X56395257Y-4939695D01*
X56279143Y-4900990D01*
X56201734Y-4823581D01*
X56163029Y-4746171D01*
X56124324Y-4591352D01*
X56124324Y-4475238D01*
X56163029Y-4320419D01*
X56201734Y-4243010D01*
X56279143Y-4165600D01*
X56395257Y-4126895D01*
X56472667Y-4126895D01*
X56588781Y-4165600D01*
X56627486Y-4204305D01*
X57401581Y-4939695D02*
X56937124Y-4939695D01*
X57169353Y-4939695D02*
X57169353Y-4126895D01*
X57091943Y-4243010D01*
X57014534Y-4320419D01*
X56937124Y-4359124D01*
X57672514Y-4126895D02*
X58175676Y-4126895D01*
X57904743Y-4436533D01*
X58020857Y-4436533D01*
X58098267Y-4475238D01*
X58136971Y-4513943D01*
X58175676Y-4591352D01*
X58175676Y-4784876D01*
X58136971Y-4862286D01*
X58098267Y-4900990D01*
X58020857Y-4939695D01*
X57788629Y-4939695D01*
X57711219Y-4900990D01*
X57672514Y-4862286D01*
X56932286Y-12968514D02*
X56970990Y-13007219D01*
X57009695Y-13123333D01*
X57009695Y-13200743D01*
X56970990Y-13316857D01*
X56893581Y-13394266D01*
X56816171Y-13432971D01*
X56661352Y-13471676D01*
X56545238Y-13471676D01*
X56390419Y-13432971D01*
X56313010Y-13394266D01*
X56235600Y-13316857D01*
X56196895Y-13200743D01*
X56196895Y-13123333D01*
X56235600Y-13007219D01*
X56274305Y-12968514D01*
X57009695Y-12194419D02*
X57009695Y-12658876D01*
X57009695Y-12426647D02*
X56196895Y-12426647D01*
X56313010Y-12504057D01*
X56390419Y-12581466D01*
X56429124Y-12658876D01*
X56467829Y-11497733D02*
X57009695Y-11497733D01*
X56158190Y-11691257D02*
X56738762Y-11884781D01*
X56738762Y-11381619D01*
X21372286Y-25160514D02*
X21410990Y-25199219D01*
X21449695Y-25315333D01*
X21449695Y-25392743D01*
X21410990Y-25508857D01*
X21333581Y-25586266D01*
X21256171Y-25624971D01*
X21101352Y-25663676D01*
X20985238Y-25663676D01*
X20830419Y-25624971D01*
X20753010Y-25586266D01*
X20675600Y-25508857D01*
X20636895Y-25392743D01*
X20636895Y-25315333D01*
X20675600Y-25199219D01*
X20714305Y-25160514D01*
X21449695Y-24386419D02*
X21449695Y-24850876D01*
X21449695Y-24618647D02*
X20636895Y-24618647D01*
X20753010Y-24696057D01*
X20830419Y-24773466D01*
X20869124Y-24850876D01*
X20636895Y-23651029D02*
X20636895Y-24038076D01*
X21023943Y-24076781D01*
X20985238Y-24038076D01*
X20946533Y-23960667D01*
X20946533Y-23767143D01*
X20985238Y-23689733D01*
X21023943Y-23651029D01*
X21101352Y-23612324D01*
X21294876Y-23612324D01*
X21372286Y-23651029D01*
X21410990Y-23689733D01*
X21449695Y-23767143D01*
X21449695Y-23960667D01*
X21410990Y-24038076D01*
X21372286Y-24076781D01*
X21372286Y-5602514D02*
X21410990Y-5641219D01*
X21449695Y-5757333D01*
X21449695Y-5834743D01*
X21410990Y-5950857D01*
X21333581Y-6028266D01*
X21256171Y-6066971D01*
X21101352Y-6105676D01*
X20985238Y-6105676D01*
X20830419Y-6066971D01*
X20753010Y-6028266D01*
X20675600Y-5950857D01*
X20636895Y-5834743D01*
X20636895Y-5757333D01*
X20675600Y-5641219D01*
X20714305Y-5602514D01*
X21449695Y-4828419D02*
X21449695Y-5292876D01*
X21449695Y-5060647D02*
X20636895Y-5060647D01*
X20753010Y-5138057D01*
X20830419Y-5215466D01*
X20869124Y-5292876D01*
X20636895Y-4131733D02*
X20636895Y-4286552D01*
X20675600Y-4363962D01*
X20714305Y-4402667D01*
X20830419Y-4480076D01*
X20985238Y-4518781D01*
X21294876Y-4518781D01*
X21372286Y-4480076D01*
X21410990Y-4441371D01*
X21449695Y-4363962D01*
X21449695Y-4209143D01*
X21410990Y-4131733D01*
X21372286Y-4093029D01*
X21294876Y-4054324D01*
X21101352Y-4054324D01*
X21023943Y-4093029D01*
X20985238Y-4131733D01*
X20946533Y-4209143D01*
X20946533Y-4363962D01*
X20985238Y-4441371D01*
X21023943Y-4480076D01*
X21101352Y-4518781D01*
X38213695Y-4155923D02*
X37400895Y-4155923D01*
X37400895Y-3962399D01*
X37439600Y-3846285D01*
X37517010Y-3768876D01*
X37594419Y-3730171D01*
X37749238Y-3691466D01*
X37865352Y-3691466D01*
X38020171Y-3730171D01*
X38097581Y-3768876D01*
X38174990Y-3846285D01*
X38213695Y-3962399D01*
X38213695Y-4155923D01*
X38213695Y-2917371D02*
X38213695Y-3381828D01*
X38213695Y-3149599D02*
X37400895Y-3149599D01*
X37517010Y-3227009D01*
X37594419Y-3304418D01*
X37633124Y-3381828D01*
X67980077Y-40753695D02*
X67980077Y-39940895D01*
X68173601Y-39940895D01*
X68289715Y-39979600D01*
X68367124Y-40057010D01*
X68405829Y-40134419D01*
X68444534Y-40289238D01*
X68444534Y-40405352D01*
X68405829Y-40560171D01*
X68367124Y-40637581D01*
X68289715Y-40714990D01*
X68173601Y-40753695D01*
X67980077Y-40753695D01*
X68754172Y-40018305D02*
X68792877Y-39979600D01*
X68870286Y-39940895D01*
X69063810Y-39940895D01*
X69141220Y-39979600D01*
X69179924Y-40018305D01*
X69218629Y-40095714D01*
X69218629Y-40173124D01*
X69179924Y-40289238D01*
X68715467Y-40753695D01*
X69218629Y-40753695D01*
X34452077Y-31101695D02*
X34452077Y-30288895D01*
X34645601Y-30288895D01*
X34761715Y-30327600D01*
X34839124Y-30405010D01*
X34877829Y-30482419D01*
X34916534Y-30637238D01*
X34916534Y-30753352D01*
X34877829Y-30908171D01*
X34839124Y-30985581D01*
X34761715Y-31062990D01*
X34645601Y-31101695D01*
X34452077Y-31101695D01*
X35187467Y-30288895D02*
X35690629Y-30288895D01*
X35419696Y-30598533D01*
X35535810Y-30598533D01*
X35613220Y-30637238D01*
X35651924Y-30675943D01*
X35690629Y-30753352D01*
X35690629Y-30946876D01*
X35651924Y-31024286D01*
X35613220Y-31062990D01*
X35535810Y-31101695D01*
X35303582Y-31101695D01*
X35226172Y-31062990D01*
X35187467Y-31024286D01*
X16164077Y-29577695D02*
X16164077Y-28764895D01*
X16357601Y-28764895D01*
X16473715Y-28803600D01*
X16551124Y-28881010D01*
X16589829Y-28958419D01*
X16628534Y-29113238D01*
X16628534Y-29229352D01*
X16589829Y-29384171D01*
X16551124Y-29461581D01*
X16473715Y-29538990D01*
X16357601Y-29577695D01*
X16164077Y-29577695D01*
X17325220Y-29035829D02*
X17325220Y-29577695D01*
X17131696Y-28726190D02*
X16938172Y-29306762D01*
X17441334Y-29306762D01*
X34452077Y-28561695D02*
X34452077Y-27748895D01*
X34645601Y-27748895D01*
X34761715Y-27787600D01*
X34839124Y-27865010D01*
X34877829Y-27942419D01*
X34916534Y-28097238D01*
X34916534Y-28213352D01*
X34877829Y-28368171D01*
X34839124Y-28445581D01*
X34761715Y-28522990D01*
X34645601Y-28561695D01*
X34452077Y-28561695D01*
X35651924Y-27748895D02*
X35264877Y-27748895D01*
X35226172Y-28135943D01*
X35264877Y-28097238D01*
X35342286Y-28058533D01*
X35535810Y-28058533D01*
X35613220Y-28097238D01*
X35651924Y-28135943D01*
X35690629Y-28213352D01*
X35690629Y-28406876D01*
X35651924Y-28484286D01*
X35613220Y-28522990D01*
X35535810Y-28561695D01*
X35342286Y-28561695D01*
X35264877Y-28522990D01*
X35226172Y-28484286D01*
X34452077Y-11543695D02*
X34452077Y-10730895D01*
X34645601Y-10730895D01*
X34761715Y-10769600D01*
X34839124Y-10847010D01*
X34877829Y-10924419D01*
X34916534Y-11079238D01*
X34916534Y-11195352D01*
X34877829Y-11350171D01*
X34839124Y-11427581D01*
X34761715Y-11504990D01*
X34645601Y-11543695D01*
X34452077Y-11543695D01*
X35613220Y-10730895D02*
X35458401Y-10730895D01*
X35380991Y-10769600D01*
X35342286Y-10808305D01*
X35264877Y-10924419D01*
X35226172Y-11079238D01*
X35226172Y-11388876D01*
X35264877Y-11466286D01*
X35303582Y-11504990D01*
X35380991Y-11543695D01*
X35535810Y-11543695D01*
X35613220Y-11504990D01*
X35651924Y-11466286D01*
X35690629Y-11388876D01*
X35690629Y-11195352D01*
X35651924Y-11117943D01*
X35613220Y-11079238D01*
X35535810Y-11040533D01*
X35380991Y-11040533D01*
X35303582Y-11079238D01*
X35264877Y-11117943D01*
X35226172Y-11195352D01*
X34452077Y-9003695D02*
X34452077Y-8190895D01*
X34645601Y-8190895D01*
X34761715Y-8229600D01*
X34839124Y-8307010D01*
X34877829Y-8384419D01*
X34916534Y-8539238D01*
X34916534Y-8655352D01*
X34877829Y-8810171D01*
X34839124Y-8887581D01*
X34761715Y-8964990D01*
X34645601Y-9003695D01*
X34452077Y-9003695D01*
X35380991Y-8539238D02*
X35303582Y-8500533D01*
X35264877Y-8461829D01*
X35226172Y-8384419D01*
X35226172Y-8345714D01*
X35264877Y-8268305D01*
X35303582Y-8229600D01*
X35380991Y-8190895D01*
X35535810Y-8190895D01*
X35613220Y-8229600D01*
X35651924Y-8268305D01*
X35690629Y-8345714D01*
X35690629Y-8384419D01*
X35651924Y-8461829D01*
X35613220Y-8500533D01*
X35535810Y-8539238D01*
X35380991Y-8539238D01*
X35303582Y-8577943D01*
X35264877Y-8616648D01*
X35226172Y-8694057D01*
X35226172Y-8848876D01*
X35264877Y-8926286D01*
X35303582Y-8964990D01*
X35380991Y-9003695D01*
X35535810Y-9003695D01*
X35613220Y-8964990D01*
X35651924Y-8926286D01*
X35690629Y-8848876D01*
X35690629Y-8694057D01*
X35651924Y-8616648D01*
X35613220Y-8577943D01*
X35535810Y-8539238D01*
X53966533Y-20433695D02*
X53579486Y-20433695D01*
X53579486Y-19620895D01*
X54663219Y-20433695D02*
X54198762Y-20433695D01*
X54430991Y-20433695D02*
X54430991Y-19620895D01*
X54353581Y-19737010D01*
X54276172Y-19814419D01*
X54198762Y-19853124D01*
X68947695Y-17915466D02*
X68560648Y-18186399D01*
X68947695Y-18379923D02*
X68134895Y-18379923D01*
X68134895Y-18070285D01*
X68173600Y-17992876D01*
X68212305Y-17954171D01*
X68289714Y-17915466D01*
X68405829Y-17915466D01*
X68483238Y-17954171D01*
X68521943Y-17992876D01*
X68560648Y-18070285D01*
X68560648Y-18379923D01*
X68134895Y-17644533D02*
X68134895Y-17141371D01*
X68444533Y-17412304D01*
X68444533Y-17296190D01*
X68483238Y-17218780D01*
X68521943Y-17180076D01*
X68599352Y-17141371D01*
X68792876Y-17141371D01*
X68870286Y-17180076D01*
X68908990Y-17218780D01*
X68947695Y-17296190D01*
X68947695Y-17528418D01*
X68908990Y-17605828D01*
X68870286Y-17644533D01*
X39483695Y-3691466D02*
X39096648Y-3962399D01*
X39483695Y-4155923D02*
X38670895Y-4155923D01*
X38670895Y-3846285D01*
X38709600Y-3768876D01*
X38748305Y-3730171D01*
X38825714Y-3691466D01*
X38941829Y-3691466D01*
X39019238Y-3730171D01*
X39057943Y-3768876D01*
X39096648Y-3846285D01*
X39096648Y-4155923D01*
X38941829Y-2994780D02*
X39483695Y-2994780D01*
X38632190Y-3188304D02*
X39212762Y-3381828D01*
X39212762Y-2878666D01*
X45838534Y-28307695D02*
X45567601Y-27920648D01*
X45374077Y-28307695D02*
X45374077Y-27494895D01*
X45683715Y-27494895D01*
X45761124Y-27533600D01*
X45799829Y-27572305D01*
X45838534Y-27649714D01*
X45838534Y-27765829D01*
X45799829Y-27843238D01*
X45761124Y-27881943D01*
X45683715Y-27920648D01*
X45374077Y-27920648D01*
X46573924Y-27494895D02*
X46186877Y-27494895D01*
X46148172Y-27881943D01*
X46186877Y-27843238D01*
X46264286Y-27804533D01*
X46457810Y-27804533D01*
X46535220Y-27843238D01*
X46573924Y-27881943D01*
X46612629Y-27959352D01*
X46612629Y-28152876D01*
X46573924Y-28230286D01*
X46535220Y-28268990D01*
X46457810Y-28307695D01*
X46264286Y-28307695D01*
X46186877Y-28268990D01*
X46148172Y-28230286D01*
X68444534Y-39737695D02*
X68173601Y-39350648D01*
X67980077Y-39737695D02*
X67980077Y-38924895D01*
X68289715Y-38924895D01*
X68367124Y-38963600D01*
X68405829Y-39002305D01*
X68444534Y-39079714D01*
X68444534Y-39195829D01*
X68405829Y-39273238D01*
X68367124Y-39311943D01*
X68289715Y-39350648D01*
X67980077Y-39350648D01*
X69141220Y-38924895D02*
X68986401Y-38924895D01*
X68908991Y-38963600D01*
X68870286Y-39002305D01*
X68792877Y-39118419D01*
X68754172Y-39273238D01*
X68754172Y-39582876D01*
X68792877Y-39660286D01*
X68831582Y-39698990D01*
X68908991Y-39737695D01*
X69063810Y-39737695D01*
X69141220Y-39698990D01*
X69179924Y-39660286D01*
X69218629Y-39582876D01*
X69218629Y-39389352D01*
X69179924Y-39311943D01*
X69141220Y-39273238D01*
X69063810Y-39234533D01*
X68908991Y-39234533D01*
X68831582Y-39273238D01*
X68792877Y-39311943D01*
X68754172Y-39389352D01*
X34916534Y-35673695D02*
X34645601Y-35286648D01*
X34452077Y-35673695D02*
X34452077Y-34860895D01*
X34761715Y-34860895D01*
X34839124Y-34899600D01*
X34877829Y-34938305D01*
X34916534Y-35015714D01*
X34916534Y-35131829D01*
X34877829Y-35209238D01*
X34839124Y-35247943D01*
X34761715Y-35286648D01*
X34452077Y-35286648D01*
X35187467Y-34860895D02*
X35729334Y-34860895D01*
X35380991Y-35673695D01*
X20941695Y-36457466D02*
X20554648Y-36728399D01*
X20941695Y-36921923D02*
X20128895Y-36921923D01*
X20128895Y-36612285D01*
X20167600Y-36534876D01*
X20206305Y-36496171D01*
X20283714Y-36457466D01*
X20399829Y-36457466D01*
X20477238Y-36496171D01*
X20515943Y-36534876D01*
X20554648Y-36612285D01*
X20554648Y-36921923D01*
X20477238Y-35993009D02*
X20438533Y-36070418D01*
X20399829Y-36109123D01*
X20322419Y-36147828D01*
X20283714Y-36147828D01*
X20206305Y-36109123D01*
X20167600Y-36070418D01*
X20128895Y-35993009D01*
X20128895Y-35838190D01*
X20167600Y-35760780D01*
X20206305Y-35722076D01*
X20283714Y-35683371D01*
X20322419Y-35683371D01*
X20399829Y-35722076D01*
X20438533Y-35760780D01*
X20477238Y-35838190D01*
X20477238Y-35993009D01*
X20515943Y-36070418D01*
X20554648Y-36109123D01*
X20632057Y-36147828D01*
X20786876Y-36147828D01*
X20864286Y-36109123D01*
X20902990Y-36070418D01*
X20941695Y-35993009D01*
X20941695Y-35838190D01*
X20902990Y-35760780D01*
X20864286Y-35722076D01*
X20786876Y-35683371D01*
X20632057Y-35683371D01*
X20554648Y-35722076D01*
X20515943Y-35760780D01*
X20477238Y-35838190D01*
X30085695Y-37219466D02*
X29698648Y-37490399D01*
X30085695Y-37683923D02*
X29272895Y-37683923D01*
X29272895Y-37374285D01*
X29311600Y-37296876D01*
X29350305Y-37258171D01*
X29427714Y-37219466D01*
X29543829Y-37219466D01*
X29621238Y-37258171D01*
X29659943Y-37296876D01*
X29698648Y-37374285D01*
X29698648Y-37683923D01*
X30085695Y-36832418D02*
X30085695Y-36677599D01*
X30046990Y-36600190D01*
X30008286Y-36561485D01*
X29892171Y-36484076D01*
X29737352Y-36445371D01*
X29427714Y-36445371D01*
X29350305Y-36484076D01*
X29311600Y-36522780D01*
X29272895Y-36600190D01*
X29272895Y-36755009D01*
X29311600Y-36832418D01*
X29350305Y-36871123D01*
X29427714Y-36909828D01*
X29621238Y-36909828D01*
X29698648Y-36871123D01*
X29737352Y-36832418D01*
X29776057Y-36755009D01*
X29776057Y-36600190D01*
X29737352Y-36522780D01*
X29698648Y-36484076D01*
X29621238Y-36445371D01*
X23353486Y-38213695D02*
X23082553Y-37826648D01*
X22889029Y-38213695D02*
X22889029Y-37400895D01*
X23198667Y-37400895D01*
X23276076Y-37439600D01*
X23314781Y-37478305D01*
X23353486Y-37555714D01*
X23353486Y-37671829D01*
X23314781Y-37749238D01*
X23276076Y-37787943D01*
X23198667Y-37826648D01*
X22889029Y-37826648D01*
X24127581Y-38213695D02*
X23663124Y-38213695D01*
X23895353Y-38213695D02*
X23895353Y-37400895D01*
X23817943Y-37517010D01*
X23740534Y-37594419D01*
X23663124Y-37633124D01*
X24630743Y-37400895D02*
X24708152Y-37400895D01*
X24785562Y-37439600D01*
X24824267Y-37478305D01*
X24862971Y-37555714D01*
X24901676Y-37710533D01*
X24901676Y-37904057D01*
X24862971Y-38058876D01*
X24824267Y-38136286D01*
X24785562Y-38174990D01*
X24708152Y-38213695D01*
X24630743Y-38213695D01*
X24553333Y-38174990D01*
X24514629Y-38136286D01*
X24475924Y-38058876D01*
X24437219Y-37904057D01*
X24437219Y-37710533D01*
X24475924Y-37555714D01*
X24514629Y-37478305D01*
X24553333Y-37439600D01*
X24630743Y-37400895D01*
X26147486Y-38213695D02*
X25876553Y-37826648D01*
X25683029Y-38213695D02*
X25683029Y-37400895D01*
X25992667Y-37400895D01*
X26070076Y-37439600D01*
X26108781Y-37478305D01*
X26147486Y-37555714D01*
X26147486Y-37671829D01*
X26108781Y-37749238D01*
X26070076Y-37787943D01*
X25992667Y-37826648D01*
X25683029Y-37826648D01*
X26921581Y-38213695D02*
X26457124Y-38213695D01*
X26689353Y-38213695D02*
X26689353Y-37400895D01*
X26611943Y-37517010D01*
X26534534Y-37594419D01*
X26457124Y-37633124D01*
X27695676Y-38213695D02*
X27231219Y-38213695D01*
X27463448Y-38213695D02*
X27463448Y-37400895D01*
X27386038Y-37517010D01*
X27308629Y-37594419D01*
X27231219Y-37633124D01*
X34783486Y-33641695D02*
X34512553Y-33254648D01*
X34319029Y-33641695D02*
X34319029Y-32828895D01*
X34628667Y-32828895D01*
X34706076Y-32867600D01*
X34744781Y-32906305D01*
X34783486Y-32983714D01*
X34783486Y-33099829D01*
X34744781Y-33177238D01*
X34706076Y-33215943D01*
X34628667Y-33254648D01*
X34319029Y-33254648D01*
X35557581Y-33641695D02*
X35093124Y-33641695D01*
X35325353Y-33641695D02*
X35325353Y-32828895D01*
X35247943Y-32945010D01*
X35170534Y-33022419D01*
X35093124Y-33061124D01*
X35867219Y-32906305D02*
X35905924Y-32867600D01*
X35983333Y-32828895D01*
X36176857Y-32828895D01*
X36254267Y-32867600D01*
X36292971Y-32906305D01*
X36331676Y-32983714D01*
X36331676Y-33061124D01*
X36292971Y-33177238D01*
X35828514Y-33641695D01*
X36331676Y-33641695D01*
X18019486Y-35419695D02*
X17748553Y-35032648D01*
X17555029Y-35419695D02*
X17555029Y-34606895D01*
X17864667Y-34606895D01*
X17942076Y-34645600D01*
X17980781Y-34684305D01*
X18019486Y-34761714D01*
X18019486Y-34877829D01*
X17980781Y-34955238D01*
X17942076Y-34993943D01*
X17864667Y-35032648D01*
X17555029Y-35032648D01*
X18793581Y-35419695D02*
X18329124Y-35419695D01*
X18561353Y-35419695D02*
X18561353Y-34606895D01*
X18483943Y-34723010D01*
X18406534Y-34800419D01*
X18329124Y-34839124D01*
X19064514Y-34606895D02*
X19567676Y-34606895D01*
X19296743Y-34916533D01*
X19412857Y-34916533D01*
X19490267Y-34955238D01*
X19528971Y-34993943D01*
X19567676Y-35071352D01*
X19567676Y-35264876D01*
X19528971Y-35342286D01*
X19490267Y-35380990D01*
X19412857Y-35419695D01*
X19180629Y-35419695D01*
X19103219Y-35380990D01*
X19064514Y-35342286D01*
X13829695Y-32272514D02*
X13442648Y-32543447D01*
X13829695Y-32736971D02*
X13016895Y-32736971D01*
X13016895Y-32427333D01*
X13055600Y-32349924D01*
X13094305Y-32311219D01*
X13171714Y-32272514D01*
X13287829Y-32272514D01*
X13365238Y-32311219D01*
X13403943Y-32349924D01*
X13442648Y-32427333D01*
X13442648Y-32736971D01*
X13829695Y-31498419D02*
X13829695Y-31962876D01*
X13829695Y-31730647D02*
X13016895Y-31730647D01*
X13133010Y-31808057D01*
X13210419Y-31885466D01*
X13249124Y-31962876D01*
X13287829Y-30801733D02*
X13829695Y-30801733D01*
X12978190Y-30995257D02*
X13558762Y-31188781D01*
X13558762Y-30685619D01*
X34783486Y-26275695D02*
X34512553Y-25888648D01*
X34319029Y-26275695D02*
X34319029Y-25462895D01*
X34628667Y-25462895D01*
X34706076Y-25501600D01*
X34744781Y-25540305D01*
X34783486Y-25617714D01*
X34783486Y-25733829D01*
X34744781Y-25811238D01*
X34706076Y-25849943D01*
X34628667Y-25888648D01*
X34319029Y-25888648D01*
X35557581Y-26275695D02*
X35093124Y-26275695D01*
X35325353Y-26275695D02*
X35325353Y-25462895D01*
X35247943Y-25579010D01*
X35170534Y-25656419D01*
X35093124Y-25695124D01*
X36292971Y-25462895D02*
X35905924Y-25462895D01*
X35867219Y-25849943D01*
X35905924Y-25811238D01*
X35983333Y-25772533D01*
X36176857Y-25772533D01*
X36254267Y-25811238D01*
X36292971Y-25849943D01*
X36331676Y-25927352D01*
X36331676Y-26120876D01*
X36292971Y-26198286D01*
X36254267Y-26236990D01*
X36176857Y-26275695D01*
X35983333Y-26275695D01*
X35905924Y-26236990D01*
X35867219Y-26198286D01*
X34783486Y-16115695D02*
X34512553Y-15728648D01*
X34319029Y-16115695D02*
X34319029Y-15302895D01*
X34628667Y-15302895D01*
X34706076Y-15341600D01*
X34744781Y-15380305D01*
X34783486Y-15457714D01*
X34783486Y-15573829D01*
X34744781Y-15651238D01*
X34706076Y-15689943D01*
X34628667Y-15728648D01*
X34319029Y-15728648D01*
X35557581Y-16115695D02*
X35093124Y-16115695D01*
X35325353Y-16115695D02*
X35325353Y-15302895D01*
X35247943Y-15419010D01*
X35170534Y-15496419D01*
X35093124Y-15535124D01*
X35828514Y-15302895D02*
X36370381Y-15302895D01*
X36022038Y-16115695D01*
X22465695Y-19318514D02*
X22078648Y-19589447D01*
X22465695Y-19782971D02*
X21652895Y-19782971D01*
X21652895Y-19473333D01*
X21691600Y-19395924D01*
X21730305Y-19357219D01*
X21807714Y-19318514D01*
X21923829Y-19318514D01*
X22001238Y-19357219D01*
X22039943Y-19395924D01*
X22078648Y-19473333D01*
X22078648Y-19782971D01*
X22465695Y-18544419D02*
X22465695Y-19008876D01*
X22465695Y-18776647D02*
X21652895Y-18776647D01*
X21769010Y-18854057D01*
X21846419Y-18931466D01*
X21885124Y-19008876D01*
X22001238Y-18079962D02*
X21962533Y-18157371D01*
X21923829Y-18196076D01*
X21846419Y-18234781D01*
X21807714Y-18234781D01*
X21730305Y-18196076D01*
X21691600Y-18157371D01*
X21652895Y-18079962D01*
X21652895Y-17925143D01*
X21691600Y-17847733D01*
X21730305Y-17809029D01*
X21807714Y-17770324D01*
X21846419Y-17770324D01*
X21923829Y-17809029D01*
X21962533Y-17847733D01*
X22001238Y-17925143D01*
X22001238Y-18079962D01*
X22039943Y-18157371D01*
X22078648Y-18196076D01*
X22156057Y-18234781D01*
X22310876Y-18234781D01*
X22388286Y-18196076D01*
X22426990Y-18157371D01*
X22465695Y-18079962D01*
X22465695Y-17925143D01*
X22426990Y-17847733D01*
X22388286Y-17809029D01*
X22310876Y-17770324D01*
X22156057Y-17770324D01*
X22078648Y-17809029D01*
X22039943Y-17847733D01*
X22001238Y-17925143D01*
X28561695Y-19318514D02*
X28174648Y-19589447D01*
X28561695Y-19782971D02*
X27748895Y-19782971D01*
X27748895Y-19473333D01*
X27787600Y-19395924D01*
X27826305Y-19357219D01*
X27903714Y-19318514D01*
X28019829Y-19318514D01*
X28097238Y-19357219D01*
X28135943Y-19395924D01*
X28174648Y-19473333D01*
X28174648Y-19782971D01*
X28561695Y-18544419D02*
X28561695Y-19008876D01*
X28561695Y-18776647D02*
X27748895Y-18776647D01*
X27865010Y-18854057D01*
X27942419Y-18931466D01*
X27981124Y-19008876D01*
X28561695Y-18157371D02*
X28561695Y-18002552D01*
X28522990Y-17925143D01*
X28484286Y-17886438D01*
X28368171Y-17809029D01*
X28213352Y-17770324D01*
X27903714Y-17770324D01*
X27826305Y-17809029D01*
X27787600Y-17847733D01*
X27748895Y-17925143D01*
X27748895Y-18079962D01*
X27787600Y-18157371D01*
X27826305Y-18196076D01*
X27903714Y-18234781D01*
X28097238Y-18234781D01*
X28174648Y-18196076D01*
X28213352Y-18157371D01*
X28252057Y-18079962D01*
X28252057Y-17925143D01*
X28213352Y-17847733D01*
X28174648Y-17809029D01*
X28097238Y-17770324D01*
X24497695Y-19318514D02*
X24110648Y-19589447D01*
X24497695Y-19782971D02*
X23684895Y-19782971D01*
X23684895Y-19473333D01*
X23723600Y-19395924D01*
X23762305Y-19357219D01*
X23839714Y-19318514D01*
X23955829Y-19318514D01*
X24033238Y-19357219D01*
X24071943Y-19395924D01*
X24110648Y-19473333D01*
X24110648Y-19782971D01*
X23762305Y-19008876D02*
X23723600Y-18970171D01*
X23684895Y-18892762D01*
X23684895Y-18699238D01*
X23723600Y-18621828D01*
X23762305Y-18583124D01*
X23839714Y-18544419D01*
X23917124Y-18544419D01*
X24033238Y-18583124D01*
X24497695Y-19047581D01*
X24497695Y-18544419D01*
X23684895Y-18041257D02*
X23684895Y-17963848D01*
X23723600Y-17886438D01*
X23762305Y-17847733D01*
X23839714Y-17809029D01*
X23994533Y-17770324D01*
X24188057Y-17770324D01*
X24342876Y-17809029D01*
X24420286Y-17847733D01*
X24458990Y-17886438D01*
X24497695Y-17963848D01*
X24497695Y-18041257D01*
X24458990Y-18118667D01*
X24420286Y-18157371D01*
X24342876Y-18196076D01*
X24188057Y-18234781D01*
X23994533Y-18234781D01*
X23839714Y-18196076D01*
X23762305Y-18157371D01*
X23723600Y-18118667D01*
X23684895Y-18041257D01*
X26529695Y-19318514D02*
X26142648Y-19589447D01*
X26529695Y-19782971D02*
X25716895Y-19782971D01*
X25716895Y-19473333D01*
X25755600Y-19395924D01*
X25794305Y-19357219D01*
X25871714Y-19318514D01*
X25987829Y-19318514D01*
X26065238Y-19357219D01*
X26103943Y-19395924D01*
X26142648Y-19473333D01*
X26142648Y-19782971D01*
X25794305Y-19008876D02*
X25755600Y-18970171D01*
X25716895Y-18892762D01*
X25716895Y-18699238D01*
X25755600Y-18621828D01*
X25794305Y-18583124D01*
X25871714Y-18544419D01*
X25949124Y-18544419D01*
X26065238Y-18583124D01*
X26529695Y-19047581D01*
X26529695Y-18544419D01*
X26529695Y-17770324D02*
X26529695Y-18234781D01*
X26529695Y-18002552D02*
X25716895Y-18002552D01*
X25833010Y-18079962D01*
X25910419Y-18157371D01*
X25949124Y-18234781D01*
X34783486Y-14083695D02*
X34512553Y-13696648D01*
X34319029Y-14083695D02*
X34319029Y-13270895D01*
X34628667Y-13270895D01*
X34706076Y-13309600D01*
X34744781Y-13348305D01*
X34783486Y-13425714D01*
X34783486Y-13541829D01*
X34744781Y-13619238D01*
X34706076Y-13657943D01*
X34628667Y-13696648D01*
X34319029Y-13696648D01*
X35093124Y-13348305D02*
X35131829Y-13309600D01*
X35209238Y-13270895D01*
X35402762Y-13270895D01*
X35480172Y-13309600D01*
X35518876Y-13348305D01*
X35557581Y-13425714D01*
X35557581Y-13503124D01*
X35518876Y-13619238D01*
X35054419Y-14083695D01*
X35557581Y-14083695D01*
X35867219Y-13348305D02*
X35905924Y-13309600D01*
X35983333Y-13270895D01*
X36176857Y-13270895D01*
X36254267Y-13309600D01*
X36292971Y-13348305D01*
X36331676Y-13425714D01*
X36331676Y-13503124D01*
X36292971Y-13619238D01*
X35828514Y-14083695D01*
X36331676Y-14083695D01*
X13829695Y-12714514D02*
X13442648Y-12985447D01*
X13829695Y-13178971D02*
X13016895Y-13178971D01*
X13016895Y-12869333D01*
X13055600Y-12791924D01*
X13094305Y-12753219D01*
X13171714Y-12714514D01*
X13287829Y-12714514D01*
X13365238Y-12753219D01*
X13403943Y-12791924D01*
X13442648Y-12869333D01*
X13442648Y-13178971D01*
X13094305Y-12404876D02*
X13055600Y-12366171D01*
X13016895Y-12288762D01*
X13016895Y-12095238D01*
X13055600Y-12017828D01*
X13094305Y-11979124D01*
X13171714Y-11940419D01*
X13249124Y-11940419D01*
X13365238Y-11979124D01*
X13829695Y-12443581D01*
X13829695Y-11940419D01*
X13287829Y-11243733D02*
X13829695Y-11243733D01*
X12978190Y-11437257D02*
X13558762Y-11630781D01*
X13558762Y-11127619D01*
X34783486Y-6717695D02*
X34512553Y-6330648D01*
X34319029Y-6717695D02*
X34319029Y-5904895D01*
X34628667Y-5904895D01*
X34706076Y-5943600D01*
X34744781Y-5982305D01*
X34783486Y-6059714D01*
X34783486Y-6175829D01*
X34744781Y-6253238D01*
X34706076Y-6291943D01*
X34628667Y-6330648D01*
X34319029Y-6330648D01*
X35093124Y-5982305D02*
X35131829Y-5943600D01*
X35209238Y-5904895D01*
X35402762Y-5904895D01*
X35480172Y-5943600D01*
X35518876Y-5982305D01*
X35557581Y-6059714D01*
X35557581Y-6137124D01*
X35518876Y-6253238D01*
X35054419Y-6717695D01*
X35557581Y-6717695D01*
X36292971Y-5904895D02*
X35905924Y-5904895D01*
X35867219Y-6291943D01*
X35905924Y-6253238D01*
X35983333Y-6214533D01*
X36176857Y-6214533D01*
X36254267Y-6253238D01*
X36292971Y-6291943D01*
X36331676Y-6369352D01*
X36331676Y-6562876D01*
X36292971Y-6640286D01*
X36254267Y-6678990D01*
X36176857Y-6717695D01*
X35983333Y-6717695D01*
X35905924Y-6678990D01*
X35867219Y-6640286D01*
X11746895Y-24495276D02*
X12404876Y-24495276D01*
X12482286Y-24456571D01*
X12520990Y-24417867D01*
X12559695Y-24340457D01*
X12559695Y-24185638D01*
X12520990Y-24108229D01*
X12482286Y-24069524D01*
X12404876Y-24030819D01*
X11746895Y-24030819D01*
X12559695Y-23218019D02*
X12559695Y-23682476D01*
X12559695Y-23450247D02*
X11746895Y-23450247D01*
X11863010Y-23527657D01*
X11940419Y-23605066D01*
X11979124Y-23682476D01*
X21398895Y-31099276D02*
X22056876Y-31099276D01*
X22134286Y-31060571D01*
X22172990Y-31021867D01*
X22211695Y-30944457D01*
X22211695Y-30789638D01*
X22172990Y-30712229D01*
X22134286Y-30673524D01*
X22056876Y-30634819D01*
X21398895Y-30634819D01*
X21398895Y-29899428D02*
X21398895Y-30054247D01*
X21437600Y-30131657D01*
X21476305Y-30170362D01*
X21592419Y-30247771D01*
X21747238Y-30286476D01*
X22056876Y-30286476D01*
X22134286Y-30247771D01*
X22172990Y-30209066D01*
X22211695Y-30131657D01*
X22211695Y-29976838D01*
X22172990Y-29899428D01*
X22134286Y-29860724D01*
X22056876Y-29822019D01*
X21863352Y-29822019D01*
X21785943Y-29860724D01*
X21747238Y-29899428D01*
X21708533Y-29976838D01*
X21708533Y-30131657D01*
X21747238Y-30209066D01*
X21785943Y-30247771D01*
X21863352Y-30286476D01*
X21398895Y-11541276D02*
X22056876Y-11541276D01*
X22134286Y-11502571D01*
X22172990Y-11463867D01*
X22211695Y-11386457D01*
X22211695Y-11231638D01*
X22172990Y-11154229D01*
X22134286Y-11115524D01*
X22056876Y-11076819D01*
X21398895Y-11076819D01*
X21398895Y-10767181D02*
X21398895Y-10225314D01*
X22211695Y-10573657D01*
X37966953Y-20554648D02*
X37966953Y-20941695D01*
X37696020Y-20128895D02*
X37966953Y-20554648D01*
X38237886Y-20128895D01*
X38934572Y-20941695D02*
X38470115Y-20941695D01*
X38702344Y-20941695D02*
X38702344Y-20128895D01*
X38624934Y-20245010D01*
X38547525Y-20322419D01*
X38470115Y-20361124D01*
D14*
X11720286Y-18677466D02*
X11758990Y-18716171D01*
X11797695Y-18832285D01*
X11797695Y-18909695D01*
X11758990Y-19025809D01*
X11681581Y-19103218D01*
X11604171Y-19141923D01*
X11449352Y-19180628D01*
X11333238Y-19180628D01*
X11178419Y-19141923D01*
X11101010Y-19103218D01*
X11023600Y-19025809D01*
X10984895Y-18909695D01*
X10984895Y-18832285D01*
X11023600Y-18716171D01*
X11062305Y-18677466D01*
X11797695Y-17903371D02*
X11797695Y-18367828D01*
X11797695Y-18135599D02*
X10984895Y-18135599D01*
X11101010Y-18213009D01*
X11178419Y-18290418D01*
X11217124Y-18367828D01*
D13*
X38136286Y-35187466D02*
X38174990Y-35226171D01*
X38213695Y-35342285D01*
X38213695Y-35419695D01*
X38174990Y-35535809D01*
X38097581Y-35613218D01*
X38020171Y-35651923D01*
X37865352Y-35690628D01*
X37749238Y-35690628D01*
X37594419Y-35651923D01*
X37517010Y-35613218D01*
X37439600Y-35535809D01*
X37400895Y-35419695D01*
X37400895Y-35342285D01*
X37439600Y-35226171D01*
X37478305Y-35187466D01*
X37400895Y-34916533D02*
X37400895Y-34374666D01*
X38213695Y-34723009D01*
X55662286Y-32647466D02*
X55700990Y-32686171D01*
X55739695Y-32802285D01*
X55739695Y-32879695D01*
X55700990Y-32995809D01*
X55623581Y-33073218D01*
X55546171Y-33111923D01*
X55391352Y-33150628D01*
X55275238Y-33150628D01*
X55120419Y-33111923D01*
X55043010Y-33073218D01*
X54965600Y-32995809D01*
X54926895Y-32879695D01*
X54926895Y-32802285D01*
X54965600Y-32686171D01*
X55004305Y-32647466D01*
X55275238Y-32183009D02*
X55236533Y-32260418D01*
X55197829Y-32299123D01*
X55120419Y-32337828D01*
X55081714Y-32337828D01*
X55004305Y-32299123D01*
X54965600Y-32260418D01*
X54926895Y-32183009D01*
X54926895Y-32028190D01*
X54965600Y-31950780D01*
X55004305Y-31912076D01*
X55081714Y-31873371D01*
X55120419Y-31873371D01*
X55197829Y-31912076D01*
X55236533Y-31950780D01*
X55275238Y-32028190D01*
X55275238Y-32183009D01*
X55313943Y-32260418D01*
X55352648Y-32299123D01*
X55430057Y-32337828D01*
X55584876Y-32337828D01*
X55662286Y-32299123D01*
X55700990Y-32260418D01*
X55739695Y-32183009D01*
X55739695Y-32028190D01*
X55700990Y-31950780D01*
X55662286Y-31912076D01*
X55584876Y-31873371D01*
X55430057Y-31873371D01*
X55352648Y-31912076D01*
X55313943Y-31950780D01*
X55275238Y-32028190D01*
X53204534Y-31532286D02*
X53165829Y-31570990D01*
X53049715Y-31609695D01*
X52972305Y-31609695D01*
X52856191Y-31570990D01*
X52778782Y-31493581D01*
X52740077Y-31416171D01*
X52701372Y-31261352D01*
X52701372Y-31145238D01*
X52740077Y-30990419D01*
X52778782Y-30913010D01*
X52856191Y-30835600D01*
X52972305Y-30796895D01*
X53049715Y-30796895D01*
X53165829Y-30835600D01*
X53204534Y-30874305D01*
X53591582Y-31609695D02*
X53746401Y-31609695D01*
X53823810Y-31570990D01*
X53862515Y-31532286D01*
X53939924Y-31416171D01*
X53978629Y-31261352D01*
X53978629Y-30951714D01*
X53939924Y-30874305D01*
X53901220Y-30835600D01*
X53823810Y-30796895D01*
X53668991Y-30796895D01*
X53591582Y-30835600D01*
X53552877Y-30874305D01*
X53514172Y-30951714D01*
X53514172Y-31145238D01*
X53552877Y-31222648D01*
X53591582Y-31261352D01*
X53668991Y-31300057D01*
X53823810Y-31300057D01*
X53901220Y-31261352D01*
X53939924Y-31222648D01*
X53978629Y-31145238D01*
D11*
X50385429Y-32662952D02*
X50385429Y-31901047D01*
X50766381Y-32281999D02*
X50004476Y-32281999D01*
D13*
X57087105Y-32589410D02*
X57048400Y-32666819D01*
X56970990Y-32744229D01*
X56854876Y-32860343D01*
X56816171Y-32937752D01*
X56816171Y-33015162D01*
X57009695Y-32976457D02*
X56970990Y-33053867D01*
X56893581Y-33131276D01*
X56738762Y-33169981D01*
X56467829Y-33169981D01*
X56313010Y-33131276D01*
X56235600Y-33053867D01*
X56196895Y-32976457D01*
X56196895Y-32821638D01*
X56235600Y-32744229D01*
X56313010Y-32666819D01*
X56467829Y-32628114D01*
X56738762Y-32628114D01*
X56893581Y-32666819D01*
X56970990Y-32744229D01*
X57009695Y-32821638D01*
X57009695Y-32976457D01*
X57009695Y-31854019D02*
X57009695Y-32318476D01*
X57009695Y-32086247D02*
X56196895Y-32086247D01*
X56313010Y-32163657D01*
X56390419Y-32241066D01*
X56429124Y-32318476D01*
X65517486Y-32548286D02*
X65478781Y-32586990D01*
X65362667Y-32625695D01*
X65285257Y-32625695D01*
X65169143Y-32586990D01*
X65091734Y-32509581D01*
X65053029Y-32432171D01*
X65014324Y-32277352D01*
X65014324Y-32161238D01*
X65053029Y-32006419D01*
X65091734Y-31929010D01*
X65169143Y-31851600D01*
X65285257Y-31812895D01*
X65362667Y-31812895D01*
X65478781Y-31851600D01*
X65517486Y-31890305D01*
X66291581Y-32625695D02*
X65827124Y-32625695D01*
X66059353Y-32625695D02*
X66059353Y-31812895D01*
X65981943Y-31929010D01*
X65904534Y-32006419D01*
X65827124Y-32045124D01*
X66794743Y-31812895D02*
X66872152Y-31812895D01*
X66949562Y-31851600D01*
X66988267Y-31890305D01*
X67026971Y-31967714D01*
X67065676Y-32122533D01*
X67065676Y-32316057D01*
X67026971Y-32470876D01*
X66988267Y-32548286D01*
X66949562Y-32586990D01*
X66872152Y-32625695D01*
X66794743Y-32625695D01*
X66717333Y-32586990D01*
X66678629Y-32548286D01*
X66639924Y-32470876D01*
X66601219Y-32316057D01*
X66601219Y-32122533D01*
X66639924Y-31967714D01*
X66678629Y-31890305D01*
X66717333Y-31851600D01*
X66794743Y-31812895D01*
D11*
X63085429Y-33678952D02*
X63085429Y-32917047D01*
X63466381Y-33297999D02*
X62704476Y-33297999D01*
D13*
X57263695Y-10428514D02*
X56876648Y-10699447D01*
X57263695Y-10892971D02*
X56450895Y-10892971D01*
X56450895Y-10583333D01*
X56489600Y-10505924D01*
X56528305Y-10467219D01*
X56605714Y-10428514D01*
X56721829Y-10428514D01*
X56799238Y-10467219D01*
X56837943Y-10505924D01*
X56876648Y-10583333D01*
X56876648Y-10892971D01*
X56528305Y-10118876D02*
X56489600Y-10080171D01*
X56450895Y-10002762D01*
X56450895Y-9809238D01*
X56489600Y-9731828D01*
X56528305Y-9693124D01*
X56605714Y-9654419D01*
X56683124Y-9654419D01*
X56799238Y-9693124D01*
X57263695Y-10157581D01*
X57263695Y-9654419D01*
X56450895Y-9383486D02*
X56450895Y-8841619D01*
X57263695Y-9189962D01*
X68870286Y-7380514D02*
X68908990Y-7419219D01*
X68947695Y-7535333D01*
X68947695Y-7612743D01*
X68908990Y-7728857D01*
X68831581Y-7806266D01*
X68754171Y-7844971D01*
X68599352Y-7883676D01*
X68483238Y-7883676D01*
X68328419Y-7844971D01*
X68251010Y-7806266D01*
X68173600Y-7728857D01*
X68134895Y-7612743D01*
X68134895Y-7535333D01*
X68173600Y-7419219D01*
X68212305Y-7380514D01*
X68947695Y-6606419D02*
X68947695Y-7070876D01*
X68947695Y-6838647D02*
X68134895Y-6838647D01*
X68251010Y-6916057D01*
X68328419Y-6993466D01*
X68367124Y-7070876D01*
X68134895Y-6335486D02*
X68134895Y-5793619D01*
X68947695Y-6141962D01*
X44687067Y-3364895D02*
X44687067Y-3945467D01*
X44648363Y-4061581D01*
X44570953Y-4138990D01*
X44454839Y-4177695D01*
X44377429Y-4177695D01*
X44996705Y-3364895D02*
X45499867Y-3364895D01*
X45228934Y-3674533D01*
X45345048Y-3674533D01*
X45422458Y-3713238D01*
X45461162Y-3751943D01*
X45499867Y-3829352D01*
X45499867Y-4022876D01*
X45461162Y-4100286D01*
X45422458Y-4138990D01*
X45345048Y-4177695D01*
X45112820Y-4177695D01*
X45035410Y-4138990D01*
X44996705Y-4100286D01*
M02*
